<?xml version="1.0" encoding="UTF-8"?> <svg xmlns="http://www.w3.org/2000/svg" width="103" height="40" viewBox="0 0 103 40"><g id="amazon-partner-badge" transform="translate(-3631 8157)"><g id="Group_4203" data-name="Group 4203" transform="translate(3642.051 -8153.482)"><g id="Group_4201" data-name="Group 4201" transform="translate(0.005 22.792)"><path id="Path_6199" data-name="Path 6199" d="M2.608-7.392H4.034l2.454-7.022H5.033L3.607-9.905a8.422,8.422,0,0,0-.264.97c-.075-.33-.172-.65-.269-.97L1.685-14.415H.154Zm6.421.145A3.947,3.947,0,0,0,10.795-7.6V-8.644a4.964,4.964,0,0,1-1.608.251C8.3-8.393,7.945-8.829,7.9-9.5h3.153a3.75,3.75,0,0,0,.029-.465c0-1.29-.562-2.563-2.261-2.563-1.649,0-2.25,1.222-2.25,2.668A2.308,2.308,0,0,0,9.029-7.247Zm-.214-4.239c.582,0,.882.4.931,1.047H7.9C7.953-11.088,8.234-11.486,8.816-11.486Zm3.423,4.093h1.329v-3.463a1.435,1.435,0,0,1,1.028-.4,2.4,2.4,0,0,1,.64.068v-1.27a1.333,1.333,0,0,0-.408-.058,1.508,1.508,0,0,0-1.29.766l-.05-.621H12.238Zm3.948,0h1.329v-4.975H16.187Zm2.319-3.87h.815v3.87h1.338v-3.87h2.328v3.87h1.329v-4.975H20.659v-.495c0-.65.3-.912.9-.912a3.867,3.867,0,0,1,.785.077v-1.028a3.636,3.636,0,0,0-1.038-.136,1.76,1.76,0,0,0-1.989,1.91v.583h-.815Zm9.457,4.015A3.947,3.947,0,0,0,29.727-7.6V-8.644a4.964,4.964,0,0,1-1.608.251c-.882,0-1.241-.436-1.29-1.106h3.15a3.75,3.75,0,0,0,.029-.465c0-1.29-.562-2.563-2.261-2.563-1.649,0-2.25,1.222-2.25,2.668A2.312,2.312,0,0,0,27.962-7.247Zm-.214-4.239c.582,0,.882.4.931,1.047H26.837c.048-.649.327-1.047.912-1.047Zm5.17,4.249a1.809,1.809,0,0,0,1.445-.582l.117.427h1.135v-7.352H34.286v2.578a2.034,2.034,0,0,0-1.232-.359c-1.445,0-2.279.96-2.279,2.658C30.775-8.247,31.59-7.237,32.918-7.237Zm.388-1.125c-.8,0-1.173-.688-1.173-1.532s.33-1.5,1.125-1.5a1.926,1.926,0,0,1,1.028.251v2.541a1.79,1.79,0,0,1-.98.243Zm6.382,3.181h1.329V-7.586a2.015,2.015,0,0,0,1.212.349c1.445,0,2.3-1.019,2.3-2.658,0-1.678-.8-2.628-2.124-2.628a1.841,1.841,0,0,0-1.457.572l-.107-.417H39.684Zm2.337-3.181A1.9,1.9,0,0,1,41.018-8.6v-2.541a1.779,1.779,0,0,1,1-.251c.8,0,1.156.688,1.156,1.532s-.351,1.5-1.147,1.5Zm6.421.97h1.212v-3.133c0-1.426-.766-1.988-2.161-1.988a3.863,3.863,0,0,0-1.795.408v1.055a3.939,3.939,0,0,1,1.591-.311c.747,0,1.038.262,1.038.9v.107c-.136,0-.281-.01-.388-.01-1.678,0-2.619.475-2.619,1.639a1.442,1.442,0,0,0,.447,1.093,1.442,1.442,0,0,0,1.114.393,2.236,2.236,0,0,0,1.494-.534Zm-1.055-.863c-.495,0-.708-.271-.708-.6,0-.465.5-.64,1.542-.64h.107v.96a1.712,1.712,0,0,1-.943.283Zm3.752.863h1.329v-3.463a1.435,1.435,0,0,1,1.028-.4,2.4,2.4,0,0,1,.64.068v-1.27a1.333,1.333,0,0,0-.408-.058,1.508,1.508,0,0,0-1.29.766l-.05-.62H51.141Zm3.482-3.87H55.4v2.221c0,1.125.359,1.794,1.736,1.794a3.4,3.4,0,0,0,1.2-.2V-8.489a4.2,4.2,0,0,1-.863.087c-.621,0-.737-.223-.737-.727v-2.134h1.62v-1.106h-1.62v-1.543H55.4v1.543h-.776Zm4.84,3.87h1.329V-11.1a1.942,1.942,0,0,1,1.038-.271.794.794,0,0,1,.682.216.794.794,0,0,1,.231.677v3.084h1.329v-3.259a1.644,1.644,0,0,0-1.794-1.872,2.161,2.161,0,0,0-1.552.562l-.107-.408H59.465Zm8.138.145A3.947,3.947,0,0,0,69.369-7.6V-8.644a4.964,4.964,0,0,1-1.608.251c-.882,0-1.241-.436-1.29-1.106h3.152a3.749,3.749,0,0,0,.029-.465c0-1.29-.562-2.563-2.261-2.563-1.649,0-2.25,1.222-2.25,2.668A2.308,2.308,0,0,0,67.6-7.247Zm-.214-4.239c.582,0,.882.4.931,1.047H66.478C66.526-11.088,66.808-11.486,67.39-11.486Zm3.424,4.093h1.329v-3.463a1.435,1.435,0,0,1,1.028-.4,2.4,2.4,0,0,1,.64.068v-1.27a1.333,1.333,0,0,0-.408-.058,1.508,1.508,0,0,0-1.29.766l-.05-.621H70.812Z" transform="translate(-0.154 14.861)" fill="#fff"></path><circle id="Ellipse_255" data-name="Ellipse 255" cx="0.754" cy="0.754" r="0.754" transform="translate(16.004 0.433)" fill="#fff"></circle><circle id="Ellipse_256" data-name="Ellipse 256" cx="0.754" cy="0.754" r="0.754" transform="translate(22.537 0.433)" fill="#fff"></circle></g><g id="页面-1" transform="translate(0 0)"><g id="_x34_kmiles-ERP_x2F_English_xFF08_banner1_xFF09_" transform="translate(0 0)"><g id="编组-53" transform="translate(0 0)"><g id="spn"><g id="编组-102"><g id="编组"><g id="Group_4202" data-name="Group 4202" transform="translate(7.721 13.664)"><path id="Fill-1" d="M89.536,275.1a20.862,20.862,0,0,1-11.525,3.421,21.253,21.253,0,0,1-14.087-5.208c-.291-.251-.028-.61.319-.4a29.125,29.125,0,0,0,14.087,3.632,28.743,28.743,0,0,0,10.749-2.133c.54-.236.983.319.457.693" transform="translate(-63.799 -272.85)" fill="#fff" fill-rule="evenodd"></path></g><path id="Fill-3" d="M245.782,295c-.36-.471-2.424-.222-3.338-.111-.277.028-.319-.208-.069-.388,1.634-1.163,4.322-.831,4.627-.443s-.083,3.13-1.621,4.432c-.236.194-.457.1-.36-.166.36-.887,1.136-2.854.762-3.324" transform="translate(-211.715 -280.606)" fill="#fff" fill-rule="evenodd"></path><path id="Fill-5" d="M242.41,220.579v-1.26a.3.3,0,0,1,.3-.319h5.428a.314.314,0,0,1,.319.319V220.4a1.778,1.778,0,0,1-.416.79l-2.814,4.183a5.859,5.859,0,0,1,3.1.693.586.586,0,0,1,.291.5v1.344c0,.18-.194.4-.4.291a6.042,6.042,0,0,0-5.749.014c-.194.111-.388-.111-.388-.291v-1.288a1.528,1.528,0,0,1,.208-.872l3.267-4.875h-2.839a.3.3,0,0,1-.319-.3" transform="translate(-211.613 -216.258)" fill="#fff" fill-rule="evenodd"></path><path id="Fill-7" d="M90.9,228.879H89.288a.325.325,0,0,1-.291-.291V219.6a.314.314,0,0,1,.319-.319h1.508a.326.326,0,0,1,.291.3v1.177h.028a2.173,2.173,0,0,1,4.225,0A2.3,2.3,0,0,1,97.6,219.1a2.243,2.243,0,0,1,1.87.983,5.129,5.129,0,0,1,.4,2.814v5.665a.311.311,0,0,1-.3.319H97.944a.318.318,0,0,1-.291-.319V223.8a13.7,13.7,0,0,0-.042-1.69.857.857,0,0,0-.955-.776,1.08,1.08,0,0,0-.967.734,5.845,5.845,0,0,0-.151,1.718v4.765a.311.311,0,0,1-.3.319H93.611a.318.318,0,0,1-.291-.319v-4.765c0-1,.151-2.48-1-2.48-1.163,0-1.122,1.441-1.122,2.48v4.765a.3.3,0,0,1-.3.332" transform="translate(-79.727 -216.343)" fill="#fff" fill-rule="evenodd"></path><path id="Fill-9" d="M301,220.8c-1.233,0-1.316,1.731-1.316,2.8s-.014,3.38,1.3,3.38,1.357-1.856,1.357-2.992a8.26,8.26,0,0,0-.251-2.341,1.046,1.046,0,0,0-1.094-.845m-.012-1.8c2.493,0,3.837,2.189,3.837,4.975,0,2.687-1.5,4.82-3.837,4.82-2.452,0-3.782-2.189-3.782-4.917S298.544,219,300.982,219" transform="translate(-259.089 -216.258)" fill="#fff" fill-rule="evenodd"></path><path id="Fill-11" d="M365.87,228.794h-1.579a.318.318,0,0,1-.291-.319v-8.99a.3.3,0,0,1,.3-.291h1.468a.309.309,0,0,1,.277.251v1.371h.028c.443-1.233,1.066-1.815,2.161-1.815a2.06,2.06,0,0,1,1.856,1.053,6.231,6.231,0,0,1,.416,2.8v5.652a.3.3,0,0,1-.3.277h-1.593a.3.3,0,0,1-.277-.277v-4.875c0-.983.111-2.424-1-2.424a1.018,1.018,0,0,0-.914.72,4.39,4.39,0,0,0-.251,1.7v4.834a.315.315,0,0,1-.3.333" transform="translate(-316.635 -216.259)" fill="#fff" fill-rule="evenodd"></path><path id="Fill-13" d="M186.055,228.739a.357.357,0,0,1-.4.042,4.413,4.413,0,0,1-.983-1.136,3.4,3.4,0,0,1-2.814,1.247,2.431,2.431,0,0,1-2.563-2.674,2.906,2.906,0,0,1,1.815-2.8,11.979,11.979,0,0,1,3.214-.6V222.6a2.272,2.272,0,0,0-.208-1.247,1.13,1.13,0,0,0-.955-.443,1.3,1.3,0,0,0-1.371,1.025.369.369,0,0,1-.291.319l-1.648-.18a.295.295,0,0,1-.251-.36c.374-2.022,2.189-2.618,3.823-2.618a3.865,3.865,0,0,1,2.577.859c.831.776.748,1.815.748,2.951v2.673a2.352,2.352,0,0,0,.653,1.593.325.325,0,0,1,0,.457c-.374.263-1,.8-1.344,1.108Zm-1.718-4.183a3.4,3.4,0,0,1-.319,1.815,1.388,1.388,0,0,1-1.177.776c-.653,0-1.039-.5-1.039-1.247,0-1.454,1.3-1.731,2.535-1.731Z" transform="translate(-157.515 -216.342)" fill="#fff" fill-rule="evenodd"></path><path id="Fill-15" d="M28.855,228.651a.357.357,0,0,1-.4.042,4.412,4.412,0,0,1-.983-1.136,3.4,3.4,0,0,1-2.814,1.247,2.431,2.431,0,0,1-2.563-2.674,2.906,2.906,0,0,1,1.815-2.8,11.981,11.981,0,0,1,3.214-.6v-.222a2.272,2.272,0,0,0-.208-1.247,1.13,1.13,0,0,0-.955-.443,1.3,1.3,0,0,0-1.371,1.025.369.369,0,0,1-.291.319l-1.648-.18a.295.295,0,0,1-.251-.36c.374-2.022,2.189-2.632,3.809-2.632a3.864,3.864,0,0,1,2.577.859c.831.776.748,1.815.748,2.951v2.674a2.352,2.352,0,0,0,.653,1.593.325.325,0,0,1,0,.457c-.36.277-.983.817-1.33,1.122Zm-1.718-4.183a3.4,3.4,0,0,1-.318,1.816,1.388,1.388,0,0,1-1.177.776c-.653,0-1.039-.5-1.039-1.247,0-1.454,1.3-1.731,2.535-1.731Z" transform="translate(-22.09 -216.255)" fill="#fff" fill-rule="evenodd"></path><path id="Fill-17" d="M495.771,204.436a3.548,3.548,0,0,0-.693,2.341,3.82,3.82,0,0,0,.665,2.369,2.708,2.708,0,0,0,2.272.983,2.642,2.642,0,0,0,2.189-.969,3.582,3.582,0,0,0,.693-2.272v-.166a3.568,3.568,0,0,0-.776-2.355,2.555,2.555,0,0,0-2.036-.9,2.764,2.764,0,0,0-2.312.969m6.538-4.875V210.67a.312.312,0,0,1-.332.291H501.3a.327.327,0,0,1-.346-.3V209.59a3.38,3.38,0,0,1-3.1,1.593,4.036,4.036,0,0,1-3.2-1.33,4.53,4.53,0,0,1-1.053-3.1,4.4,4.4,0,0,1,1.053-3.033,3.854,3.854,0,0,1,3.13-1.344,3.413,3.413,0,0,1,3.089,1.759v-4.627a.327.327,0,0,1,.346-.3h.72a.38.38,0,0,1,.374.36" transform="translate(-428.281 -199.201)" fill="#fff" fill-rule="evenodd"></path><path id="Fill-33" d="M436.989,224.553a2.345,2.345,0,0,1-.942,1.815,3.267,3.267,0,0,1-2.175.817,2.111,2.111,0,0,1-1.3-.388,1.225,1.225,0,0,1-.485-1c0-1.274.969-1.91,2.909-1.953l1.995-.028Zm.568-4.573a3.511,3.511,0,0,0-2.742-.984,5.908,5.908,0,0,0-1.025.083h0a5.98,5.98,0,0,0-2.312.887.248.248,0,0,0-.1.319l.251.513a.251.251,0,0,0,.346.111,8.312,8.312,0,0,1,2.064-.748,3.6,3.6,0,0,1,.693-.055,1.971,1.971,0,0,1,2.258,2.2v.457l-2.078.028a5.457,5.457,0,0,0-3.02.679A2.609,2.609,0,0,0,430.7,225.8a2.207,2.207,0,0,0,.8,1.759,3.065,3.065,0,0,0,2.078.665,4.314,4.314,0,0,0,2.161-.54,3.861,3.861,0,0,0,1.316-1.178v1.15a.337.337,0,0,0,.332.333h.592a.337.337,0,0,0,.333-.333v-5.3a3.387,3.387,0,0,0-.762-2.369Z" transform="translate(-374.097 -216.256)" fill="#fff" fill-rule="evenodd"></path><path id="Fill-35" d="M564.4,226.7a.251.251,0,0,1,.388-.208,4.18,4.18,0,0,0,2.175.594c1.219,0,2.05-.4,2.05-1.191a1.031,1.031,0,0,0-.4-.831,8.482,8.482,0,0,0-1.842-.776,4.526,4.526,0,0,1-1.91-1.163,2.238,2.238,0,0,1-.443-1.385,2.306,2.306,0,0,1,1-1.939,4.133,4.133,0,0,1,2.452-.707,5.565,5.565,0,0,1,1.939.4.255.255,0,0,1,.166.236v.9a.251.251,0,0,1-.374.222,4.278,4.278,0,0,0-1.884-.5,2.751,2.751,0,0,0-1.371.319,1.178,1.178,0,0,0-.54.928,1,1,0,0,0,.346.817,9.323,9.323,0,0,0,1.718.748,5.159,5.159,0,0,1,2.01,1.136,2.11,2.11,0,0,1,.526,1.454,2.184,2.184,0,0,1-1,1.9,4.472,4.472,0,0,1-2.59.693,5.471,5.471,0,0,1-2.258-.443.243.243,0,0,1-.151-.236Z" transform="translate(-489.276 -216.34)" fill="#fff" fill-rule="evenodd"></path></g></g></g></g></g></g></g><g id="Rectangle_1039" data-name="Rectangle 1039" transform="translate(3631 -8157)" fill="none" stroke="#fff" stroke-width="1"><rect width="103" height="40" stroke="none"></rect><rect x="0.5" y="0.5" width="102" height="39" fill="none"></rect></g></g></svg> 