<?xml version="1.0" encoding="UTF-8"?> <svg xmlns="http://www.w3.org/2000/svg" width="70.148" height="40.187" viewBox="0 0 70.148 40.187"><g id="Group_4156" data-name="Group 4156" transform="translate(0.5 0.5)"><rect id="Rectangle_482" data-name="Rectangle 482" width="69.148" height="39.187" fill="none" stroke="#fff" stroke-width="1"></rect><line id="Line_130" data-name="Line 130" y2="39.004" transform="translate(35.024 0.398)" fill="none" stroke="#fff" stroke-width="1"></line><path id="BBB-Logo" d="M161.288,164.995a.467.467,0,0,1,.36.154.494.494,0,0,1,.155.36.533.533,0,0,1-.155.377.5.5,0,0,1-.36.154.467.467,0,0,1-.36-.154.5.5,0,0,1-.154-.377A.528.528,0,0,1,161.288,164.995Zm0,.068a.471.471,0,0,0-.447.447.5.5,0,0,0,.138.326.416.416,0,0,0,.618,0,.439.439,0,0,0,.138-.326.429.429,0,0,0-.138-.309.4.4,0,0,0-.309-.138ZM145.325,159.2a2.433,2.433,0,0,1,1.786.584,1.682,1.682,0,0,1-.447,2.627,1.706,1.706,0,0,1,1.274,1.665c0,1.167-.944,1.82-2.388,1.854H142.2v-6.746h3.124Zm6.368,0a2.433,2.433,0,0,1,1.786.584,1.682,1.682,0,0,1-.447,2.627,1.706,1.706,0,0,1,1.274,1.665c0,1.167-.944,1.82-2.388,1.854h-3.349v-6.746h3.125Zm6.386,0a2.433,2.433,0,0,1,1.786.584,1.682,1.682,0,0,1-.447,2.627,1.706,1.706,0,0,1,1.274,1.665c0,1.167-.944,1.82-2.388,1.854h-3.349v-6.746h3.125Zm3.21,6.042a.381.381,0,0,1,.154.017.136.136,0,0,1,.086.138.163.163,0,0,1-.052.12c-.017.017-.051.017-.086.034h0c.051,0,.068.034.1.051.017.034.034.051.034.086v.1h-.086v-.068a.169.169,0,0,0-.051-.138c-.017-.017-.051-.017-.12-.017h-.086v.222h-.1v-.57h.206Zm-15.892-2.06h-1.786v1.477H145.4c.637,0,1.081-.257,1.081-.7s-.326-.773-1.081-.773Zm6.368,0h-1.79v1.477h1.786c.637,0,1.082-.257,1.082-.7s-.309-.773-1.081-.773Zm6.317,0h-1.716v1.477h1.768c.637,0,1.012-.257,1.012-.7.017-.447-.306-.773-1.059-.773Zm-12.948-2.628h-1.527v1.408h1.408c.637,0,1.081-.188,1.081-.7,0-.446-.326-.7-.961-.7Zm6.368,0h-1.527v1.408h1.408c.637,0,1.081-.188,1.081-.7,0-.446-.326-.7-.961-.7Zm6.368,0h-1.459v1.408h1.339c.637,0,1.081-.188,1.081-.7,0-.446-.326-.7-.96-.7Zm-.756-5.786.429,1.353h-3.038l-.57,1.923h-5.029l-.57-1.923H145.3l.429-1.353ZM149,144.926l.4.326a.815.815,0,0,0,.138,1.064l.086.068h0l2.575,1.875a3,3,0,0,1,1.012,1.513,3.184,3.184,0,0,1-.086,1.82c-.051.12-.12.239-.172.36l-.1.172-1.459,1.99-.412-.343c.017-.017.034-.034.034-.051.017-.034.034-.051.051-.086a.524.524,0,0,0,.052-.412c0-.034-.018-.051-.018-.086v-.017h0c0-.017-.017-.034-.034-.051l-.017-.034h0l-.017-.034-.034-.051-.154-.154-.034-.034-2.661-1.905a2.955,2.955,0,0,1-1.081-1.8,3.587,3.587,0,0,1-.017-.429,2.82,2.82,0,0,1,.412-1.549l.1-.154,1.046-1.408Zm2.388-9.029.326.257a1.107,1.107,0,0,0-.188.892,1.187,1.187,0,0,0,.412.687l.086.068,4.139,3.024a3.946,3.946,0,0,1,1.6,2.575,3.848,3.848,0,0,1-.584,2.8l-.12.154-2.753,3.791-.377-.275a2.155,2.155,0,0,0,.292-.618l.034-.1.034-.138a2.6,2.6,0,0,0,.034-.515l-.017-.12v-.034a1.676,1.676,0,0,0-.1-.4c0-.018,0-.018-.017-.034h0a2.176,2.176,0,0,0-.6-.824l-.12-.086-3.435-2.5a3.945,3.945,0,0,1-1.6-2.575,2,2,0,0,1-.068-.637,3.775,3.775,0,0,1,.637-2.129l.12-.172Z" transform="translate(-133.948 -131.946)" fill="#fff"></path><g id="Group_4155" data-name="Group 4155" transform="translate(38.983 3.19)"><path id="Path_6305" data-name="Path 6305" d="M-213.45,657.756h-1.945a.215.215,0,0,1-.209-.193,1.758,1.758,0,0,0-.107-.269c0-.01-.015-.019-.015-.028a.375.375,0,0,0-.061-.191,1.6,1.6,0,0,1-.073-.23,1.763,1.763,0,0,1-.107-.259c-.017-.086-.1-.144-.087-.245,0-.06-.057-.125-.09-.188-.007-.014-.027-.024-.027-.038a.826.826,0,0,0-.056-.195,1.964,1.964,0,0,0-.129-.3c-.038-.093-.051-.195-.082-.291a1.862,1.862,0,0,0-.082-.186c-.017-.04-.033-.081-.048-.12-.03-.081-.058-.163-.089-.239s-.064-.168-.1-.251-.082-.169-.116-.253a.141.141,0,0,1-.01-.021.868.868,0,0,0-.073-.239c-.067-.1-.062-.228-.127-.326s-.071-.222-.129-.326a.154.154,0,0,0-.136-.092h-7.689c-.081,0-.217.114-.214.19,0,.105-.081.174-.1.267,0,.017-.018.033-.023.051a2.588,2.588,0,0,1-.081.279c-.051.13-.115.257-.17.385a.764.764,0,0,0-.016.081q-.017.051-.039.1c0,.012-.02.021-.021.033a1.313,1.313,0,0,1-.055.2,1.761,1.761,0,0,1-.082.232,2.108,2.108,0,0,1-.112.259c0,.007-.01.016-.009.022a.585.585,0,0,1-.117.306c-.011.02-.006.047-.013.069a1,1,0,0,1-.038.1c0,.012-.022.022-.021.032a.559.559,0,0,1-.064.232,2.557,2.557,0,0,1-.12.331,1.484,1.484,0,0,0-.081.227.517.517,0,0,1-.031.071c-.007.015-.026.026-.026.039,0,.163-.119.275-.143.427a1.172,1.172,0,0,1-.111.267.1.1,0,0,1-.009.03c-.024.075-.046.152-.075.224a.085.085,0,0,1-.064.033c-.061,0-.122,0-.184,0h-3.657c-.045,0-.118-.008-.127-.033a.187.187,0,0,1,.027-.186.969.969,0,0,0,.09-.227c.011-.029.02-.058.033-.086s.025-.031.026-.048a.5.5,0,0,1,.125-.284.037.037,0,0,0,.009-.021c-.015-.163.122-.282.135-.439,0-.042.039-.082.057-.12.04-.09.081-.179.117-.271a2.321,2.321,0,0,1,.082-.232c.034-.069.081-.17.114-.257s.051-.151.075-.226v-.016c.082-.069.041-.189.112-.272a.652.652,0,0,0,.081-.226c0-.016,0-.035.008-.047a.733.733,0,0,0,.127-.311.685.685,0,0,1,.092-.178c.007-.012.019-.022.02-.034a.919.919,0,0,1,.124-.319c.056-.139.092-.287.143-.428.032-.088.081-.17.115-.258s.048-.163.076-.239c.018-.052.044-.1.066-.154.037-.081.074-.163.11-.245a.161.161,0,0,0,.015-.06.163.163,0,0,1,.047-.127.285.285,0,0,0,.072-.163.869.869,0,0,1,.124-.309,2.449,2.449,0,0,0,.082-.239c.035-.09.082-.177.116-.266.009-.021,0-.048.011-.07a.687.687,0,0,1,.04-.1q.044-.082.082-.163c.029-.081.042-.163.071-.239s.081-.17.112-.257.048-.163.082-.235.059-.13.09-.195c.006-.012.02-.02.024-.031.027-.095.047-.191.081-.284a1.735,1.735,0,0,1,.09-.2c.008-.017.029-.03.029-.046a1.332,1.332,0,0,1,.121-.335,1.059,1.059,0,0,1,.13-.286.055.055,0,0,0,.009-.03.518.518,0,0,1,.116-.281.279.279,0,0,0,.014-.053c.016-.046.031-.09.048-.135,0-.007.013-.016.011-.02-.027-.1.055-.163.076-.239a2.215,2.215,0,0,1,.108-.259c.029-.073.05-.148.082-.221s.058-.138.086-.209c.015-.037.026-.074.041-.11.037-.1.081-.191.113-.287s.052-.163.082-.232.06-.136.092-.2c.007-.015.023-.024.028-.038a1.909,1.909,0,0,1,.081-.239c.036-.076.082-.17.115-.257.008-.019,0-.042.011-.062a1.251,1.251,0,0,1,.047-.117.629.629,0,0,0,.071-.152.557.557,0,0,1,.071-.209c.081-.131.063-.3.172-.424a.072.072,0,0,0,.017-.044.585.585,0,0,1,.112-.273.484.484,0,0,0,.02-.076c.013-.036.028-.071.043-.105,0-.01.018-.019.017-.026-.024-.1.055-.163.082-.245a2.278,2.278,0,0,1,.111-.252c.029-.082.046-.163.076-.235s.062-.131.094-.2c.007-.015.026-.026.025-.039,0-.163.116-.282.146-.435a1.9,1.9,0,0,1,.163-.382.081.081,0,0,0,.011-.029.653.653,0,0,1,.114-.286.638.638,0,0,0,.019-.081c.011-.033.024-.067.039-.1,0-.012.02-.022.02-.033a.71.71,0,0,1,.124-.319c.034-.072.046-.163.076-.231a2.042,2.042,0,0,0,.11-.262c.019-.081.09-.142.081-.239,0-.064.055-.131.082-.2.013-.029.022-.059.033-.087s.029-.071.044-.107c0-.01.016-.019.016-.027,0-.143.1-.244.14-.374a2.148,2.148,0,0,1,.113-.253.091.091,0,0,0,.008-.038.615.615,0,0,1,.11-.267c0-.007.014-.015.013-.019-.023-.1.058-.163.081-.245a1.592,1.592,0,0,1,.109-.254.074.074,0,0,0,.011-.029.535.535,0,0,1,.112-.294.069.069,0,0,0,.012-.029.687.687,0,0,1,.115-.293.128.128,0,0,0,.012-.037,1.131,1.131,0,0,1,.126-.35c.032-.058.046-.126.081-.183a.121.121,0,0,1,.09-.043h3.889a.173.173,0,0,1,.2.148,2.028,2.028,0,0,1,.111.265c.016.081.1.139.082.239-.007.054.047.116.073.174l.05.117a.776.776,0,0,0,.082.2.183.183,0,0,1,.047.127.091.091,0,0,0,0,.039c.057.126.119.249.174.376.033.076.051.163.081.233s.066.139.1.209c0,.01.015.017.017.026.024.081.041.163.071.245s.081.168.114.255.051.163.082.239.062.163.095.239.066.153.1.228.075.163.108.245.056.163.086.239.053.124.082.187c.016.04.029.081.046.121q.044.106.091.21c.007.014.024.023.029.037.024.081.042.163.07.239s.076.163.11.244.055.153.082.229a1.451,1.451,0,0,0,.081.193c.037.086.082.174.114.26s.075.179.11.27c.051.129.1.258.147.388a.3.3,0,0,0,.029.054c.01.015.027.028.032.044a1.233,1.233,0,0,0,.073.239c.06.107.068.233.131.333a2.914,2.914,0,0,1,.119.314c.061.125.123.252.18.38.03.068.047.144.075.214.055.137.116.272.174.407.006.012.016.024.016.036a.546.546,0,0,0,.121.3.082.082,0,0,1,.01.038.506.506,0,0,0,.112.273.059.059,0,0,1,.014.029.543.543,0,0,0,.119.3.052.052,0,0,1,.01.029.489.489,0,0,0,.114.283.41.41,0,0,1,.016.053l.108.264c0,.012.016.024.017.036a.733.733,0,0,0,.119.295,2.173,2.173,0,0,1,.073.207c.039.1.082.2.12.306.029.081.05.163.081.239a1.526,1.526,0,0,0,.082.17.668.668,0,0,1,.115.28.556.556,0,0,0,.082.179c.016.033.031.068.045.1s.024.067.037.1c0,.012.021.021.021.033a.708.708,0,0,0,.126.31c.03.064.044.135.071.2.059.147.124.291.183.437.029.075.048.154.081.229.035.092.082.183.112.276s.051.163.082.232.061.13.093.195c.009.019.029.036.03.054a.622.622,0,0,0,.119.293.069.069,0,0,1,.012.038.588.588,0,0,0,.108.265.152.152,0,0,1,.021.051.716.716,0,0,0,.111.275,1.939,1.939,0,0,1,.082.228,2.475,2.475,0,0,0,.139.369c.056.1.068.215.12.319.031.06.069.118.1.176,0,.007.015.013.014.019a.337.337,0,0,0,.071.223.613.613,0,0,1,.037.072c.009.016.025.03.026.047a.6.6,0,0,0,.119.292.091.091,0,0,1,.011.046.553.553,0,0,0,.108.262.1.1,0,0,1,.018.035.365.365,0,0,0,.058.183,1.535,1.535,0,0,1,.082.227,2,2,0,0,0,.1.194c0,.007.012.012.015.019.024.086.046.173.074.258a1.735,1.735,0,0,0,.081.211.783.783,0,0,1,.115.274.628.628,0,0,0,.082.183l.046.1c.033.082.066.154.1.231,0,.012.021.02.022.032a.822.822,0,0,0,.123.311,2.04,2.04,0,0,1,.074.214c.038.1.082.2.121.3.029.067,0,.116-.082.116h-2Zm-7.792-7.7h2.568c.064,0,.131-.081.112-.131-.066-.191-.129-.383-.2-.57-.112-.295-.239-.587-.346-.882-.1-.26-.184-.525-.279-.786-.082-.23-.173-.458-.259-.686-.051-.137-.1-.275-.153-.407-.09-.239-.185-.478-.275-.716-.06-.163-.114-.326-.173-.489-.069-.189-.143-.377-.214-.571q-.171-.459-.34-.917c-.082-.211-.153-.423-.232-.637-.041-.109-.086-.217-.129-.326-.023-.058-.074-.047-.117-.042a.1.1,0,0,0-.081.046q-.139.358-.267.716c-.064.18-.12.363-.187.543-.051.139-.115.272-.163.407s-.1.292-.15.435c-.122.332-.252.661-.372.993-.073.2-.133.407-.205.611s-.163.419-.239.63c-.072.191-.139.385-.209.578l-.548,1.5a.1.1,0,0,1-.009.031c-.055.153-.1.31-.167.46-.057.134-.025.2.119.2Z" transform="translate(230.85 -638.216)" fill="#fff"></path><path id="Path_6306" data-name="Path 6306" d="M-71.134,664.831h-1.333c-.1,0-.109-.006-.109-.112v-1.672c0-.1,0-.109.112-.109h2.608a.275.275,0,0,0,.094-.035c.009,0,.017-.017.024-.017.106,0,.091-.069.091-.137v-2.588a.153.153,0,0,1,.145-.149h1.474a.5.5,0,0,1,.192.081c.014.007.018.042.018.064v2.658a.139.139,0,0,0,.135.128h2.7c.07-.006.1.023.1.095v1.692c0,.093-.007.1-.1.1h-2.65c-.128,0-.175.049-.176.178v2.643c0,.1-.007.108-.1.108h-1.622c-.095,0-.1-.008-.1-.1v-2.683a.141.141,0,0,0-.041-.1.141.141,0,0,0-.1-.042h-1.34Z" transform="translate(90.004 -657.354)" fill="#fff"></path><g id="Group_4154" data-name="Group 4154" transform="translate(0.496 22.103)"><path id="Path_6307" data-name="Path 6307" d="M-233.246,842.05c0-.672-.017-1.245-.047-1.773h.907l.04,1.114h.037a1.729,1.729,0,0,1,1.586-1.246,1.185,1.185,0,0,1,.288.029v.974a1.638,1.638,0,0,0-.352-.03,1.446,1.446,0,0,0-1.386,1.324,2.755,2.755,0,0,0-.042.483v3.042h-1.03Z" transform="translate(233.293 -838.026)" fill="#fff"></path><path id="Path_6308" data-name="Path 6308" d="M-206.524,845.973l-.091-.716h-.031a2.119,2.119,0,0,1-1.742.848,1.625,1.625,0,0,1-1.227-.436,1.624,1.624,0,0,1-.512-1.2c0-1.379,1.222-2.136,3.423-2.119v-.124a1.173,1.173,0,0,0-.326-.972,1.173,1.173,0,0,0-.968-.341,2.77,2.77,0,0,0-1.483.424l-.239-.689a3.582,3.582,0,0,1,1.879-.5c1.74,0,2.165,1.19,2.165,2.33v2.13a8.9,8.9,0,0,0,.086,1.363Zm-.163-2.907c-1.12-.024-2.4.178-2.4,1.279a.911.911,0,0,0,.255.718.911.911,0,0,0,.712.273,1.426,1.426,0,0,0,1.385-.955,1.076,1.076,0,0,0,.05-.326Z" transform="translate(212.935 -838.028)" fill="#fff"></path><path id="Path_6309" data-name="Path 6309" d="M-168.329,827.684v1.643h1.487v.784h-1.487v3.068c0,.709.2,1.11.783,1.11a2.061,2.061,0,0,0,.6-.075l.047.786a2.647,2.647,0,0,1-.925.143,1.449,1.449,0,0,1-1.114-.439,2.179,2.179,0,0,1-.4-1.485v-3.109h-.882v-.784h.882v-1.371Z" transform="translate(177.863 -827.073)" fill="#fff"></path><path id="Path_6310" data-name="Path 6310" d="M-137.28,823.254a.624.624,0,0,1-.187.466.623.623,0,0,1-.471.177.617.617,0,0,1-.451-.187.618.618,0,0,1-.174-.456.629.629,0,0,1,.184-.46.629.629,0,0,1,.46-.184.62.62,0,0,1,.46.183.62.62,0,0,1,.179.461Zm-1.156,7.3v-5.693h1.03v5.693Z" transform="translate(150.034 -822.61)" fill="#fff"></path><path id="Path_6311" data-name="Path 6311" d="M-119.973,841.815c0-.594-.019-1.066-.047-1.538h.914l.057.936h.029a2.1,2.1,0,0,1,1.883-1.066c.782,0,2.006.47,2.006,2.426v3.4h-1.03v-3.282c0-.92-.347-1.691-1.315-1.691a1.49,1.49,0,0,0-1.394,1.059,1.6,1.6,0,0,0-.072.478v3.43h-1.03Z" transform="translate(133.736 -838.027)" fill="#fff"></path><path id="Path_6312" data-name="Path 6312" d="M-68.632,840.277c-.029.4-.048.865-.048,1.557v3.306a3.311,3.311,0,0,1-.815,2.608,3.061,3.061,0,0,1-2.074.683,3.675,3.675,0,0,1-1.9-.469l.259-.8a3.2,3.2,0,0,0,1.676.456c1.06,0,1.83-.553,1.83-2v-.636h-.024a2.019,2.019,0,0,1-1.809.955,2.546,2.546,0,0,1-1.812-.872,2.547,2.547,0,0,1-.615-1.914,2.724,2.724,0,0,1,2.57-3.016,1.892,1.892,0,0,1,1.776.982h.024l.043-.852Zm-1.077,2.239a1.592,1.592,0,0,0-.057-.463,1.5,1.5,0,0,0-1.454-1.1c-.988,0-1.7.835-1.7,2.159,0,1.114.575,2.051,1.685,2.051a1.512,1.512,0,0,0,1.441-1.068,1.842,1.842,0,0,0,.081-.551Z" transform="translate(93.253 -838.026)" fill="#fff"></path></g></g></g></svg> 