<?xml version="1.0" encoding="UTF-8"?> <svg xmlns="http://www.w3.org/2000/svg" width="49" height="41" viewBox="0 0 49 41" fill="none"><g clip-path="url(#clip0_3666_164)"><mask id="mask0_3666_164" style="mask-type:luminance" maskUnits="userSpaceOnUse" x="0" y="0" width="48" height="41"><path d="M47.745 0.5H0.5V40.5H47.745V0.5Z" fill="white"></path></mask><g mask="url(#mask0_3666_164)"><path d="M7.55908 33.874H8.84608C9.05487 33.8731 9.26076 33.9228 9.44608 34.019C9.62887 34.1122 9.78233 34.2542 9.88951 34.4291C9.99669 34.6041 10.0534 34.8053 10.0534 35.0105C10.0534 35.2157 9.99669 35.4169 9.88951 35.5918C9.78233 35.7668 9.62887 35.9088 9.44608 36.002C9.26077 36.0982 9.05487 36.148 8.84608 36.147H8.14008V37.588H7.55908V33.874ZM8.85908 35.597C8.97583 35.6002 9.09116 35.5708 9.19208 35.512C9.32248 35.4351 9.41765 35.3103 9.45726 35.1641C9.49688 35.018 9.47779 34.8622 9.40408 34.73C9.35504 34.639 9.28163 34.5635 9.19208 34.512C9.09072 34.4545 8.97557 34.4258 8.85908 34.429H8.14208V35.597H8.85908Z" fill="white"></path><path d="M10.543 33.8729H11.843C12.0545 33.8704 12.2634 33.9202 12.451 34.0179C12.6318 34.112 12.7829 34.2545 12.8874 34.4295C12.992 34.6045 13.0458 34.8051 13.043 35.0089C13.0452 35.2528 12.9593 35.4893 12.801 35.6749C12.6467 35.8642 12.4368 36.0002 12.201 36.0639L12.196 36.0899L13.214 37.5589V37.5869H12.542L11.561 36.1339H11.125V37.5869H10.543V33.8729ZM11.836 35.5959C11.999 35.5998 12.1571 35.5403 12.277 35.4299C12.3363 35.3765 12.3833 35.3108 12.4147 35.2374C12.4462 35.164 12.4613 35.0847 12.459 35.0049C12.4585 34.9268 12.4425 34.8497 12.412 34.7778C12.3815 34.706 12.3371 34.6409 12.2813 34.5864C12.2255 34.5318 12.1595 34.4888 12.087 34.4599C12.0145 34.431 11.937 34.4167 11.859 34.4179H11.123V35.5959H11.836Z" fill="white"></path><path d="M13.6152 33.873H15.8722V34.429H14.1962V35.457H15.7062V36.007H14.1962V37.035H15.8722V37.587H13.6152V33.873Z" fill="white"></path><path d="M16.4908 33.873H17.2738L18.3428 36.692H18.3738L19.4428 33.873H20.2318V37.587H19.6558V35.505L19.6868 34.836H19.6558L18.5948 37.587H18.1288L17.0638 34.836H17.0328L17.0638 35.505V37.587H16.4878L16.4908 33.873Z" fill="white"></path><path d="M20.9849 33.873H21.5659V37.587H20.9849V33.873Z" fill="white"></path><path d="M22.3091 33.873H24.5651V34.429H22.8901V35.457H24.3981V36.007H22.8881V37.035H24.5631V37.587H22.3091V33.873Z" fill="white"></path><path d="M25.1841 33.8729H26.4921C26.7036 33.8704 26.9125 33.9202 27.1001 34.0179C27.2812 34.1116 27.4324 34.254 27.5369 34.4291C27.6413 34.6042 27.6947 34.805 27.6911 35.0089C27.6938 35.2525 27.6086 35.489 27.4511 35.6749C27.2965 35.8638 27.0867 35.9998 26.8511 36.0639L26.8461 36.0899L27.8631 37.5589V37.5869H27.1871L26.2071 36.1339H25.7701V37.5869H25.1891L25.1841 33.8729ZM26.4771 35.5959C26.6401 35.6 26.7983 35.5405 26.9181 35.4299C26.9776 35.3766 27.0248 35.311 27.0562 35.2376C27.0876 35.1641 27.1026 35.0847 27.1001 35.0049C27.0997 34.9264 27.0837 34.8487 27.0529 34.7765C27.0222 34.7043 26.9773 34.6389 26.921 34.5843C26.8646 34.5296 26.7979 34.4867 26.7248 34.4581C26.6517 34.4296 26.5736 34.4159 26.4951 34.4179H25.7631V35.5959H26.4771Z" fill="white"></path><path d="M30.806 11.477C30.7948 10.9979 30.7416 10.5208 30.647 10.051H24.147V12.751H27.793C27.7298 13.1736 27.5808 13.5788 27.3549 13.9415C27.1291 14.3042 26.8313 14.6168 26.48 14.86V16.616H28.737C29.4208 15.9521 29.9582 15.1524 30.3145 14.2684C30.6708 13.3844 30.8383 12.4356 30.806 11.483V11.477Z" fill="white"></path><path d="M24.1251 18.294C25.82 18.3412 27.4689 17.7388 28.7341 16.61L26.4781 14.854C25.9402 15.1999 25.3303 15.4181 24.6951 15.492C24.0599 15.5658 23.4162 15.4934 22.8133 15.2802C22.2104 15.067 21.6643 14.7187 21.2167 14.262C20.7691 13.8052 20.432 13.2521 20.2311 12.645H17.9111V14.451C18.4881 15.6052 19.375 16.5761 20.4725 17.2548C21.5699 17.9335 22.8347 18.2933 24.1251 18.294Z" fill="white"></path><path d="M20.234 12.645C19.9463 11.7841 19.9463 10.8529 20.234 9.99201V8.18701H17.914C17.4269 9.15903 17.1733 10.2313 17.1733 11.3185C17.1733 12.4057 17.4269 13.478 17.914 14.45L20.234 12.645Z" fill="white"></path><path d="M24.1251 7.11795C25.1144 7.1025 26.07 7.47719 26.7851 8.16095L28.7781 6.16095C27.521 4.97545 25.8529 4.32406 24.1251 4.34395C22.8349 4.34543 21.5706 4.70597 20.4736 5.38522C19.3767 6.06447 18.4904 7.03562 17.9141 8.18995L20.2341 9.99595C20.5 9.16944 21.0185 8.44716 21.7165 7.93085C22.4145 7.41454 23.257 7.13023 24.1251 7.11795Z" fill="white"></path><path d="M4.67511 25.8199C4.33666 25.626 4.05602 25.3453 3.86211 25.0069C3.66476 24.6579 3.56104 24.2638 3.56104 23.8629C3.56104 23.462 3.66476 23.0679 3.86211 22.7189C4.05746 22.3797 4.33932 22.0984 4.67892 21.9037C5.01852 21.7091 5.40369 21.608 5.79511 21.6109C6.10118 21.6084 6.40482 21.6655 6.68911 21.7789C6.95326 21.8808 7.18967 22.0435 7.37911 22.2539L7.01211 22.6219C6.87234 22.4508 6.69229 22.3172 6.48811 22.2329C6.27073 22.1412 6.03702 22.0946 5.80111 22.0959C5.50296 22.0941 5.20943 22.1695 4.94911 22.3149C4.68658 22.4615 4.46829 22.676 4.31711 22.9359C4.16103 23.219 4.07917 23.5371 4.07917 23.8604C4.07917 24.1837 4.16103 24.5018 4.31711 24.7849C4.46884 25.0458 4.68869 25.2604 4.95311 25.4059C5.19342 25.5345 5.45908 25.6087 5.73126 25.6232C6.00344 25.6377 6.27548 25.5922 6.52811 25.4899C6.71598 25.4034 6.88567 25.2819 7.02811 25.1319C7.13652 25.0128 7.22226 24.8748 7.28111 24.7249C7.34775 24.5563 7.38854 24.3786 7.40211 24.1979H5.80211V23.7259H7.87411C7.89321 23.8285 7.90324 23.9326 7.90411 24.0369C7.90536 24.2996 7.86347 24.5607 7.78011 24.8099C7.69865 25.0574 7.56185 25.2831 7.38011 25.4699C7.1779 25.6845 6.93187 25.8531 6.65873 25.9643C6.38558 26.0754 6.09173 26.1264 5.79711 26.1139C5.40321 26.1182 5.01637 26.0167 4.67511 25.8199Z" fill="white"></path><path d="M5.79494 26.1691C5.39276 26.1726 4.99689 26.0691 4.64794 25.8691C4.30257 25.67 4.01617 25.3829 3.81794 25.0371C3.61594 24.6801 3.50977 24.2768 3.50977 23.8666C3.50977 23.4564 3.61594 23.0531 3.81794 22.6961C4.01778 22.3487 4.30632 22.0607 4.65405 21.8614C5.00177 21.6622 5.39619 21.5589 5.79694 21.5621C6.10985 21.5599 6.42022 21.6184 6.71094 21.7341C6.98239 21.8396 7.22525 22.0075 7.41994 22.2241L7.45294 22.2611L7.00594 22.7011L6.96894 22.6561C6.83555 22.4925 6.6638 22.3643 6.46894 22.2831C6.258 22.1951 6.03149 22.1506 5.80294 22.1521C5.51351 22.1505 5.22861 22.2239 4.97594 22.3651C4.72173 22.5068 4.51008 22.714 4.36294 22.9651C4.21097 23.2407 4.13127 23.5503 4.13127 23.8651C4.13127 24.1798 4.21097 24.4895 4.36294 24.7651C4.51079 25.0167 4.72354 25.2239 4.97894 25.3651C5.21209 25.4897 5.46974 25.5618 5.73373 25.5761C5.99773 25.5905 6.26166 25.5468 6.50694 25.4481C6.68944 25.3642 6.85436 25.2465 6.99294 25.1011C7.09659 24.9868 7.17859 24.8547 7.23494 24.7111C7.29238 24.5652 7.32972 24.4121 7.34594 24.2561H5.75394V23.6691H7.92194L7.92994 23.7121C7.94965 23.8183 7.96002 23.9261 7.96094 24.0341C7.96114 24.3027 7.91757 24.5695 7.83194 24.8241C7.74653 25.0793 7.60429 25.3118 7.41594 25.5041C7.20907 25.7245 6.9573 25.8979 6.67765 26.0126C6.398 26.1273 6.09698 26.1807 5.79494 26.1691ZM5.79494 21.6691C5.41302 21.6652 5.03692 21.7628 4.70505 21.9519C4.37318 22.1409 4.09742 22.4146 3.90594 22.7451C3.71324 23.0862 3.61198 23.4713 3.61198 23.8631C3.61198 24.2549 3.71324 24.64 3.90594 24.9811C4.09593 25.3109 4.36989 25.5845 4.69994 25.7741C5.03258 25.9655 5.41018 26.0649 5.79394 26.0621C6.0813 26.0739 6.36785 26.024 6.63434 25.9159C6.90082 25.8078 7.14108 25.6438 7.33894 25.4351C7.51649 25.2539 7.65053 25.0347 7.73094 24.7941C7.81311 24.5502 7.85499 24.2945 7.85494 24.0371C7.8544 23.9497 7.84705 23.8624 7.83294 23.7761H5.85894V24.1491H7.45894V24.2061C7.44486 24.3919 7.40307 24.5746 7.33494 24.7481C7.27362 24.9039 7.1845 25.0472 7.07194 25.1711C6.92408 25.3271 6.74797 25.4537 6.55294 25.5441C6.29268 25.6497 6.01235 25.6968 5.73186 25.6819C5.45137 25.6671 5.17758 25.5906 4.92994 25.4581C4.65799 25.3076 4.4317 25.0865 4.27494 24.8181C4.11457 24.5271 4.03046 24.2003 4.03046 23.8681C4.03046 23.5359 4.11457 23.2091 4.27494 22.9181C4.43135 22.6505 4.65645 22.4295 4.92694 22.2781C5.16784 22.1461 5.43527 22.0697 5.70956 22.0547C5.98386 22.0396 6.25804 22.0862 6.51194 22.1911C6.70559 22.2715 6.87882 22.3941 7.01894 22.5501L7.30994 22.2591C7.13118 22.0726 6.91376 21.9276 6.67294 21.8341C6.39408 21.721 6.09586 21.6633 5.79494 21.6641V21.6691Z" fill="white"></path><path d="M9.17584 25.8991C8.93755 25.7579 8.74276 25.5537 8.61284 25.3091C8.48032 25.0543 8.41113 24.7713 8.41113 24.4841C8.41113 24.1969 8.48032 23.9139 8.61284 23.6591C8.74301 23.4146 8.93774 23.2106 9.17584 23.0691C9.42326 22.9271 9.70356 22.8523 9.98884 22.8523C10.2741 22.8523 10.5544 22.9271 10.8018 23.0691C11.0398 23.2107 11.2345 23.4147 11.3648 23.6591C11.4973 23.9139 11.5665 24.1969 11.5665 24.4841C11.5665 24.7713 11.4973 25.0543 11.3648 25.3091C11.2348 25.5536 11.04 25.7578 10.8018 25.8991C10.5544 26.0411 10.2741 26.1159 9.98884 26.1159C9.70356 26.1159 9.42326 26.0411 9.17584 25.8991ZM10.5158 25.5111C10.6808 25.4141 10.8161 25.2737 10.9068 25.1051C11.0039 24.9125 11.0545 24.6998 11.0545 24.4841C11.0545 24.2684 11.0039 24.0557 10.9068 23.8631C10.816 23.6946 10.6808 23.5542 10.5158 23.4571C10.356 23.3637 10.174 23.315 9.98884 23.3161C9.79972 23.315 9.61387 23.3654 9.45113 23.4617C9.28838 23.558 9.15487 23.6968 9.06484 23.8631C8.9674 24.0556 8.91662 24.2683 8.91662 24.4841C8.91662 24.6999 8.9674 24.9126 9.06484 25.1051C9.15592 25.2744 9.29235 25.415 9.45884 25.5111C9.62008 25.6048 9.80337 25.6538 9.98984 25.6531C10.1747 25.6537 10.3564 25.6047 10.5158 25.5111Z" fill="white"></path><path d="M9.9878 26.1681C9.69239 26.1728 9.40142 26.096 9.1468 25.9461C8.9006 25.7996 8.69903 25.5887 8.5638 25.3361C8.42725 25.0736 8.35596 24.782 8.35596 24.4861C8.35596 24.1902 8.42725 23.8986 8.5638 23.6361C8.69932 23.3837 8.90082 23.1729 9.1468 23.0261C9.40206 22.8799 9.69113 22.803 9.9853 22.803C10.2795 22.803 10.5685 22.8799 10.8238 23.0261C11.0698 23.1729 11.2713 23.3837 11.4068 23.6361C11.5434 23.8986 11.6148 24.1902 11.6148 24.4861C11.6148 24.782 11.5434 25.0736 11.4068 25.3361C11.2716 25.5887 11.07 25.7996 10.8238 25.9461C10.5707 26.0951 10.2815 26.1719 9.9878 26.1681ZM9.9878 22.9041C9.7116 22.9004 9.43969 22.9727 9.2018 23.1131C8.97204 23.2501 8.78397 23.4472 8.6578 23.6831C8.52939 23.9302 8.46235 24.2046 8.46235 24.4831C8.46235 24.7616 8.52939 25.036 8.6578 25.2831C8.78372 25.5192 8.97185 25.7163 9.2018 25.8531C9.44104 25.9903 9.71202 26.0625 9.9878 26.0625C10.2636 26.0625 10.5346 25.9903 10.7738 25.8531C11.0038 25.7164 11.192 25.5192 11.3178 25.2831C11.4463 25.036 11.5134 24.7616 11.5134 24.4831C11.5134 24.2046 11.4463 23.9302 11.3178 23.6831C11.1917 23.4471 11.0036 23.2501 10.7738 23.1131C10.5366 22.9715 10.265 22.8981 9.9888 22.9011L9.9878 22.9041ZM9.9878 25.7041C9.78911 25.7049 9.59391 25.6518 9.42295 25.5506C9.25198 25.4494 9.11163 25.3037 9.0168 25.1291C8.91532 24.9289 8.86245 24.7076 8.86245 24.4831C8.86245 24.2586 8.91532 24.0373 9.0168 23.8371C9.11113 23.6627 9.25085 23.5171 9.42116 23.4156C9.59147 23.3141 9.78604 23.2605 9.9843 23.2605C10.1826 23.2605 10.3771 23.3141 10.5474 23.4156C10.7178 23.5171 10.8575 23.6627 10.9518 23.8371C11.053 24.0374 11.1057 24.2587 11.1057 24.4831C11.1057 24.7075 11.053 24.9288 10.9518 25.1291C10.856 25.306 10.7139 25.4536 10.5408 25.5561C10.373 25.654 10.1821 25.7044 9.9878 25.7041ZM9.9878 23.3681C9.80801 23.3674 9.63141 23.4155 9.4768 23.5073C9.32219 23.599 9.19535 23.731 9.1098 23.8891C9.0171 24.0736 8.96882 24.2772 8.96882 24.4836C8.96882 24.69 9.0171 24.8936 9.1098 25.0781C9.19638 25.2385 9.32542 25.3721 9.4828 25.4641C9.63511 25.551 9.80744 25.5967 9.9828 25.5967C10.1582 25.5967 10.3305 25.551 10.4828 25.4641C10.64 25.3718 10.769 25.2384 10.8558 25.0781C10.9482 24.8935 10.9963 24.69 10.9963 24.4836C10.9963 24.2772 10.9482 24.0737 10.8558 23.8891C10.7692 23.7287 10.6402 23.5951 10.4828 23.5031C10.3311 23.4145 10.1584 23.3682 9.9828 23.3691L9.9878 23.3681Z" fill="white"></path><path d="M12.7588 25.8991C12.5207 25.7576 12.326 25.5535 12.1958 25.3091C12.0633 25.0543 11.9941 24.7713 11.9941 24.4841C11.9941 24.1969 12.0633 23.9139 12.1958 23.6591C12.3262 23.4148 12.5209 23.2108 12.7588 23.0691C13.0062 22.9271 13.2865 22.8523 13.5718 22.8523C13.8571 22.8523 14.1374 22.9271 14.3848 23.0691C14.6228 23.2107 14.8175 23.4148 14.9478 23.6591C15.0803 23.9139 15.1495 24.1969 15.1495 24.4841C15.1495 24.7713 15.0803 25.0543 14.9478 25.3091C14.8177 25.5536 14.6229 25.7577 14.3848 25.8991C14.1374 26.0411 13.8571 26.1159 13.5718 26.1159C13.2865 26.1159 13.0062 26.0411 12.7588 25.8991ZM14.0988 25.5111C14.2638 25.4141 14.3991 25.2737 14.4898 25.1051C14.5869 24.9125 14.6375 24.6998 14.6375 24.4841C14.6375 24.2684 14.5869 24.0557 14.4898 23.8631C14.3989 23.6946 14.2637 23.5542 14.0988 23.4571C13.939 23.3636 13.7569 23.3149 13.5718 23.3161C13.3827 23.3151 13.1969 23.3655 13.0342 23.4618C12.8715 23.5582 12.7379 23.6969 12.6478 23.8631C12.5507 24.0557 12.5001 24.2684 12.5001 24.4841C12.5001 24.6998 12.5507 24.9125 12.6478 25.1051C12.7155 25.2279 12.807 25.3361 12.9169 25.4232C13.0269 25.5103 13.1531 25.5746 13.2881 25.6124C13.4232 25.6502 13.5645 25.6607 13.7037 25.6433C13.8429 25.6259 13.9772 25.581 14.0988 25.5111Z" fill="white"></path><path d="M13.5718 26.1681C13.2771 26.1724 12.9869 26.0956 12.7328 25.9461C12.487 25.7994 12.2858 25.5886 12.1508 25.3361C12.0139 25.0737 11.9424 24.7821 11.9424 24.4861C11.9424 24.1901 12.0139 23.8985 12.1508 23.6361C12.2861 23.3842 12.4873 23.1737 12.7328 23.0271C12.9881 22.8809 13.2771 22.804 13.5713 22.804C13.8655 22.804 14.1545 22.8809 14.4098 23.0271C14.6554 23.1741 14.8565 23.3849 14.9918 23.6371C15.1287 23.8995 15.2002 24.1911 15.2002 24.4871C15.2002 24.7831 15.1287 25.0747 14.9918 25.3371C14.8568 25.5895 14.6556 25.8004 14.4098 25.9471C14.156 26.0961 13.8661 26.1725 13.5718 26.1681ZM13.5718 22.9041C13.2956 22.9001 13.0236 22.9724 12.7858 23.1131C12.556 23.2501 12.3679 23.4471 12.2418 23.6831C12.1133 23.9302 12.0462 24.2046 12.0462 24.4831C12.0462 24.7616 12.1133 25.036 12.2418 25.2831C12.3676 25.5192 12.5558 25.7164 12.7858 25.8531C13.025 25.9903 13.296 26.0625 13.5718 26.0625C13.8476 26.0625 14.1186 25.9903 14.3578 25.8531C14.5876 25.7161 14.7757 25.5191 14.9018 25.2831C15.0303 25.036 15.0974 24.7616 15.0974 24.4831C15.0974 24.2046 15.0303 23.9302 14.9018 23.6831C14.7755 23.4473 14.5874 23.2503 14.3578 23.1131C14.1204 22.9713 13.8483 22.898 13.5718 22.9011V22.9041ZM13.5718 25.7041C13.3733 25.7047 13.1783 25.6516 13.0075 25.5504C12.8367 25.4491 12.6966 25.3036 12.6018 25.1291C12.5003 24.9289 12.4474 24.7076 12.4474 24.4831C12.4474 24.2586 12.5003 24.0373 12.6018 23.8371C12.6976 23.6591 12.8409 23.5113 13.0158 23.4101C13.1846 23.3133 13.3757 23.2623 13.5703 23.2623C13.7649 23.2623 13.956 23.3133 14.1248 23.4101C14.2983 23.5122 14.4404 23.6599 14.5358 23.8371C14.6373 24.0373 14.6902 24.2586 14.6902 24.4831C14.6902 24.7076 14.6373 24.9289 14.5358 25.1291C14.4401 25.3061 14.298 25.4537 14.1248 25.5561C13.957 25.6541 13.7661 25.7046 13.5718 25.7041ZM13.5718 23.3681C13.392 23.3674 13.2154 23.4155 13.0608 23.5073C12.9062 23.599 12.7794 23.731 12.6938 23.8891C12.6014 24.0737 12.5533 24.2772 12.5533 24.4836C12.5533 24.69 12.6014 24.8935 12.6938 25.0781C12.7804 25.2385 12.9094 25.3721 13.0668 25.4641C13.2191 25.5511 13.3914 25.5969 13.5668 25.5969C13.7422 25.5969 13.9145 25.5511 14.0668 25.4641C14.2242 25.3721 14.3532 25.2385 14.4398 25.0781C14.5325 24.8936 14.5808 24.6901 14.5808 24.4836C14.5808 24.2772 14.5325 24.0736 14.4398 23.8891C14.3532 23.7287 14.2242 23.5951 14.0668 23.5031C13.9152 23.4144 13.7425 23.3681 13.5668 23.3691L13.5718 23.3681Z" fill="white"></path><path d="M16.1951 27.164C15.9767 27.0169 15.811 26.8039 15.7221 26.556L16.1861 26.356C16.2529 26.5309 16.3715 26.6813 16.5261 26.787C16.6921 26.8992 16.8888 26.9568 17.0891 26.952C17.2236 26.9599 17.3582 26.9404 17.4849 26.8947C17.6116 26.849 17.7277 26.778 17.8261 26.686C17.9181 26.5835 17.9886 26.4636 18.0336 26.3334C18.0786 26.2033 18.0971 26.0654 18.0881 25.928V25.584H18.0641C17.958 25.746 17.812 25.8779 17.6401 25.967C17.4486 26.0671 17.2351 26.1177 17.0191 26.114C16.7622 26.1163 16.5101 26.0444 16.2931 25.907C16.0704 25.765 15.8903 25.5652 15.7721 25.329C15.645 25.0654 15.5791 24.7766 15.5791 24.484C15.5791 24.1914 15.645 23.9026 15.7721 23.639C15.8896 23.4015 16.0698 23.2006 16.2931 23.058C16.51 22.9204 16.7622 22.8485 17.0191 22.851C17.2352 22.8477 17.4487 22.8985 17.6401 22.999C17.8132 23.0887 17.9594 23.2226 18.0641 23.387H18.0871V22.947H18.5751V25.898C18.5893 26.1043 18.5603 26.3113 18.4899 26.5057C18.4195 26.7001 18.3092 26.8777 18.1661 27.027C17.8925 27.2523 17.5553 27.3864 17.2017 27.4106C16.8482 27.4348 16.4959 27.3479 16.1941 27.162L16.1951 27.164ZM17.5951 25.512C17.7501 25.4144 17.8754 25.276 17.9571 25.112C18.0511 24.9188 18.0974 24.7058 18.0921 24.491C18.0983 24.2732 18.052 24.0571 17.9571 23.861C17.899 23.7395 17.8159 23.6317 17.7132 23.5445C17.6106 23.4573 17.4907 23.3927 17.3615 23.355C17.2322 23.3172 17.0964 23.3071 16.963 23.3254C16.8295 23.3437 16.7015 23.3899 16.5871 23.461C16.4311 23.5581 16.3051 23.6966 16.2231 23.861C16.1293 24.0543 16.083 24.2672 16.0881 24.482C16.0827 24.6987 16.129 24.9137 16.2231 25.109C16.3012 25.273 16.4246 25.4111 16.5788 25.507C16.733 25.6029 16.9115 25.6525 17.0931 25.65C17.2696 25.6519 17.443 25.6037 17.5931 25.511L17.5951 25.512Z" fill="white"></path><path d="M17.0898 27.47C16.7614 27.4824 16.4375 27.3903 16.1648 27.207C15.9377 27.0532 15.7653 26.8312 15.6728 26.573L15.6568 26.527L16.2158 26.287L16.2358 26.338C16.2993 26.5027 16.4112 26.6442 16.5568 26.744C16.7139 26.8503 16.9002 26.9052 17.0898 26.901C17.2172 26.9091 17.3449 26.8914 17.4652 26.8487C17.5855 26.8061 17.6959 26.7395 17.7898 26.653C17.8768 26.5552 17.9436 26.4412 17.9862 26.3174C18.0287 26.1936 18.0463 26.0626 18.0378 25.932V25.718C17.9342 25.8413 17.8075 25.9433 17.6648 26.018C17.4649 26.122 17.2422 26.1746 17.0168 26.171C16.75 26.1732 16.4883 26.0985 16.2628 25.956C16.0319 25.8084 15.8453 25.6011 15.7228 25.356C15.5919 25.0848 15.5239 24.7876 15.5239 24.4865C15.5239 24.1854 15.5919 23.8882 15.7228 23.617C15.8451 23.3718 16.0318 23.1644 16.2628 23.017C16.488 22.8738 16.7499 22.7988 17.0168 22.801C17.2422 22.7973 17.4649 22.8499 17.6648 22.954C17.808 23.0279 17.9349 23.13 18.0378 23.254V22.892H18.6308V25.892C18.6447 26.1056 18.6141 26.3197 18.5407 26.5208C18.4674 26.7219 18.353 26.9055 18.2048 27.06C17.8995 27.3356 17.4976 27.4794 17.0868 27.46L17.0898 27.47ZM15.7898 26.585C15.8795 26.8025 16.0306 26.9891 16.2248 27.122C16.4415 27.2933 16.7034 27.3979 16.9785 27.4228C17.2536 27.4477 17.53 27.392 17.774 27.2623C18.0179 27.1327 18.2189 26.9349 18.3522 26.6929C18.4855 26.451 18.5455 26.1755 18.5248 25.9V23H18.1418V23.44H18.0358L18.0198 23.416C17.9214 23.2588 17.7835 23.1302 17.6198 23.043C17.4348 22.9463 17.2285 22.8975 17.0198 22.901C16.772 22.8987 16.5289 22.9681 16.3198 23.101C16.1057 23.2387 15.9329 23.4319 15.8198 23.66C15.6967 23.916 15.6327 24.1964 15.6327 24.4805C15.6327 24.7646 15.6967 25.045 15.8198 25.301C15.9332 25.5289 16.1059 25.722 16.3198 25.86C16.529 25.9927 16.7721 26.0621 17.0198 26.06C17.2285 26.0642 17.4348 26.0157 17.6198 25.919C17.7835 25.834 17.9229 25.7087 18.0248 25.555L18.0408 25.531H18.1408V25.931C18.1504 26.0761 18.1308 26.2216 18.0832 26.359C18.0356 26.4964 17.961 26.6229 17.8638 26.731C17.7605 26.828 17.6384 26.9029 17.5052 26.9512C17.372 26.9995 17.2303 27.0202 17.0888 27.012C16.8746 27.0151 16.6649 26.9503 16.4898 26.827C16.3427 26.7271 16.2258 26.5887 16.1518 26.427L15.7898 26.585ZM17.0898 25.705C16.8983 25.7079 16.7099 25.6557 16.5472 25.5547C16.3844 25.4536 16.2541 25.308 16.1718 25.135C16.0736 24.9323 16.0249 24.7092 16.0298 24.484C16.0242 24.2591 16.0729 24.0361 16.1718 23.834C16.2581 23.6599 16.391 23.5131 16.5558 23.41C16.6763 23.3351 16.8111 23.2864 16.9516 23.267C17.0921 23.2475 17.2351 23.2579 17.3714 23.2973C17.5076 23.3367 17.6341 23.4043 17.7425 23.4957C17.8509 23.5872 17.9389 23.7004 18.0008 23.828C18.099 24.0321 18.1474 24.2566 18.1418 24.483C18.147 24.7071 18.0987 24.9293 18.0008 25.131C17.9148 25.3044 17.7831 25.451 17.6198 25.555C17.4608 25.6539 17.2771 25.7059 17.0898 25.705ZM17.0898 23.369C16.9211 23.3677 16.7555 23.4138 16.6118 23.502C16.4637 23.5954 16.3443 23.7279 16.2668 23.885C16.1762 24.0717 16.1316 24.2775 16.1368 24.485C16.1326 24.6924 16.1771 24.8979 16.2668 25.085C16.3409 25.2401 16.4579 25.3708 16.6039 25.4615C16.7499 25.5523 16.9189 25.5993 17.0908 25.597C17.2579 25.5983 17.4219 25.5522 17.5638 25.464C17.7107 25.37 17.829 25.2375 17.9058 25.081C17.9964 24.8942 18.041 24.6885 18.0358 24.481C18.0414 24.2715 17.9968 24.0637 17.9058 23.875C17.8294 23.7189 17.711 23.5873 17.5638 23.495C17.421 23.4082 17.2569 23.3628 17.0898 23.364V23.369Z" fill="white"></path><path d="M19.3301 21.708H19.8421V26.02H19.3301V21.708Z" fill="white"></path><path d="M19.8929 26.072H19.2759V21.655H19.8929V26.072ZM19.3809 25.972H19.7869V21.76H19.3809V25.972Z" fill="white"></path><path d="M21.1782 25.9049C20.9463 25.7654 20.7576 25.5643 20.6332 25.3239C20.499 25.0673 20.4303 24.7815 20.4332 24.4919C20.431 24.2082 20.4946 23.9278 20.6192 23.6729C20.7352 23.4293 20.9153 23.2219 21.1402 23.0729C21.3731 22.922 21.6458 22.8443 21.9232 22.8499C22.1977 22.8425 22.4688 22.9118 22.7062 23.0499C22.926 23.1835 23.1027 23.3775 23.2152 23.6089C23.3372 23.8623 23.3982 24.1407 23.3932 24.4219C23.3943 24.4748 23.3882 24.5276 23.3752 24.5789H20.9452C20.9499 24.7867 21.0077 24.9898 21.1132 25.1689C21.2053 25.3223 21.3378 25.4475 21.4962 25.5309C21.6456 25.6102 21.8121 25.6518 21.9812 25.6519C22.1695 25.6545 22.3547 25.6039 22.5155 25.5059C22.6764 25.4079 22.8062 25.2665 22.8902 25.0979L23.3252 25.3089C23.2006 25.5496 23.0147 25.7531 22.7862 25.8989C22.5414 26.0398 22.264 26.1145 21.9815 26.1156C21.699 26.1166 21.4211 26.044 21.1752 25.9049H21.1782ZM22.8522 24.1589C22.8423 24.0242 22.8052 23.8929 22.7432 23.7729C22.6747 23.6392 22.571 23.5268 22.4432 23.4479C22.2858 23.3548 22.1049 23.3089 21.9222 23.3159C21.6963 23.3106 21.4771 23.3935 21.3112 23.5469C21.1399 23.7106 21.025 23.9246 20.9832 24.1579L22.8522 24.1589Z" fill="white"></path><path d="M21.967 26.164C21.6801 26.168 21.3977 26.0925 21.151 25.946C20.9115 25.8016 20.7163 25.594 20.587 25.346C20.4509 25.0804 20.3822 24.7854 20.387 24.487C20.3836 24.1958 20.4473 23.9077 20.573 23.645C20.6938 23.3945 20.88 23.1814 21.112 23.028C21.3535 22.8715 21.6363 22.7908 21.924 22.796C22.2076 22.7899 22.4873 22.8626 22.732 23.006C22.9598 23.1444 23.1433 23.3449 23.261 23.584C23.3873 23.8444 23.451 24.1307 23.447 24.42C23.4477 24.4777 23.4407 24.5352 23.426 24.591L23.415 24.629H21.005C21.0164 24.8087 21.0702 24.9831 21.162 25.138C21.2493 25.2831 21.3744 25.4017 21.524 25.481C21.6661 25.5558 21.8244 25.595 21.985 25.595C22.164 25.5982 22.3403 25.5503 22.4931 25.457C22.6459 25.3636 22.769 25.2287 22.848 25.068L22.872 25.026L23.399 25.282L23.374 25.33C23.2441 25.5787 23.0514 25.789 22.815 25.94C22.5596 26.0944 22.2653 26.1721 21.967 26.164ZM21.205 25.853C21.4422 25.9866 21.7101 26.0562 21.9823 26.0552C22.2545 26.0541 22.5218 25.9824 22.758 25.847C22.965 25.7167 23.1367 25.5374 23.258 25.325L22.911 25.164C22.8193 25.33 22.6841 25.4678 22.5198 25.5626C22.3556 25.6574 22.1686 25.7056 21.979 25.702C21.8018 25.7023 21.6272 25.6597 21.47 25.578C21.3048 25.4893 21.1666 25.3577 21.07 25.197C20.96 25.0103 20.8994 24.7986 20.894 24.582V24.527H23.334C23.3393 24.4939 23.342 24.4605 23.342 24.427C23.347 24.1539 23.2881 23.8834 23.17 23.637C23.061 23.4159 22.8914 23.2304 22.681 23.102C22.4521 22.9688 22.1908 22.9017 21.926 22.908C21.659 22.9027 21.3964 22.9772 21.172 23.122C20.9568 23.2654 20.7841 23.464 20.672 23.697C20.5515 23.9463 20.4905 24.2201 20.494 24.497C20.4897 24.7778 20.5547 25.0553 20.683 25.305C20.8036 25.5362 20.9856 25.7296 21.209 25.864L21.205 25.853ZM22.905 24.204H20.911L20.923 24.142C20.967 23.8984 21.0871 23.6751 21.266 23.504C21.441 23.3399 21.6731 23.2506 21.913 23.255C22.106 23.248 22.2969 23.2966 22.463 23.395C22.6002 23.4784 22.7117 23.5982 22.785 23.741C22.8499 23.8673 22.8887 24.0054 22.899 24.147L22.905 24.204ZM21.041 24.104H22.79C22.7745 23.9954 22.7407 23.8903 22.69 23.793C22.624 23.669 22.5255 23.5653 22.405 23.493C22.2558 23.4056 22.0848 23.3626 21.912 23.369C21.6994 23.364 21.4932 23.4418 21.337 23.586C21.1877 23.7274 21.0834 23.9097 21.037 24.11L21.041 24.104Z" fill="white"></path><path d="M25.248 21.7081H26.699C26.9318 21.7053 27.1617 21.7603 27.368 21.8681C27.5723 21.9737 27.7437 22.1335 27.8633 22.33C27.9829 22.5265 28.0462 22.7521 28.0462 22.9821C28.0462 23.2121 27.9829 23.4377 27.8633 23.6342C27.7437 23.8307 27.5723 23.9905 27.368 24.0961C27.162 24.2053 26.9321 24.2613 26.699 24.2591H25.754V26.0171H25.248V21.7081ZM26.712 23.7741C26.8613 23.7773 27.0084 23.7378 27.136 23.6601C27.2554 23.5862 27.3539 23.4829 27.422 23.3601C27.489 23.2449 27.5243 23.1139 27.5243 22.9806C27.5243 22.8473 27.489 22.7164 27.422 22.6011C27.3538 22.4783 27.2554 22.3751 27.136 22.3011C27.0084 22.2236 26.8613 22.1841 26.712 22.1871H25.753V23.7651L26.712 23.7741Z" fill="white"></path><path d="M25.8068 26.0721H25.1968V21.6551H26.6968C26.9385 21.6534 27.1769 21.7114 27.3908 21.8241C27.6038 21.934 27.7824 22.1005 27.9071 22.3052C28.0318 22.5099 28.0977 22.7449 28.0977 22.9846C28.0977 23.2243 28.0318 23.4593 27.9071 23.664C27.7824 23.8687 27.6038 24.0352 27.3908 24.1451C27.177 24.2579 26.9385 24.316 26.6968 24.3141H25.8068V26.0721ZM25.3008 25.9721H25.7008V24.2091H26.7008C26.9251 24.2105 27.1463 24.1566 27.3448 24.0521C27.5373 23.951 27.6997 23.8009 27.8158 23.6171C27.9307 23.4265 27.9915 23.2082 27.9915 22.9856C27.9915 22.763 27.9307 22.5447 27.8158 22.3541C27.6997 22.1703 27.5373 22.0202 27.3448 21.9191C27.1462 21.8151 26.925 21.7615 26.7008 21.7631H25.2968L25.3008 25.9721ZM26.7118 23.8311H25.6968V22.1371H26.7078C26.8671 22.135 27.0238 22.178 27.1598 22.2611C27.2843 22.3392 27.3874 22.4471 27.4598 22.5751C27.5307 22.6979 27.5681 22.8373 27.5681 22.9791C27.5681 23.1209 27.5307 23.2603 27.4598 23.3831C27.3877 23.5113 27.2845 23.6192 27.1598 23.6971C27.0241 23.7809 26.8673 23.8242 26.7078 23.8221L26.7118 23.8311ZM25.8058 23.7261H26.7118C26.8525 23.7298 26.9914 23.693 27.1118 23.6201C27.2229 23.552 27.315 23.4571 27.3798 23.3441C27.4425 23.2369 27.4756 23.1148 27.4756 22.9906C27.4756 22.8663 27.4425 22.7443 27.3798 22.6371C27.3149 22.5239 27.2228 22.4287 27.1118 22.3601C26.9913 22.2874 26.8525 22.2507 26.7118 22.2541H25.8068L25.8058 23.7261Z" fill="white"></path><path d="M29.0728 25.9829C28.9046 25.9021 28.7625 25.7756 28.6628 25.6179C28.5657 25.4595 28.5157 25.2767 28.5188 25.0909C28.5129 24.9435 28.5432 24.797 28.6072 24.6641C28.6712 24.5312 28.7669 24.4161 28.8858 24.3289C29.1563 24.1383 29.4821 24.042 29.8128 24.0549C29.9864 24.0542 30.1594 24.075 30.3278 24.1169C30.4553 24.1453 30.5779 24.1921 30.6918 24.2559V24.0699C30.696 23.9656 30.6765 23.8617 30.635 23.766C30.5934 23.6702 30.5308 23.5851 30.4518 23.5169C30.2812 23.3752 30.0644 23.3015 29.8428 23.3099C29.6774 23.3082 29.5141 23.3467 29.3668 23.4219C29.2263 23.4925 29.1077 23.6 29.0238 23.7329L28.6388 23.4439C28.7626 23.256 28.9356 23.1056 29.1388 23.0089C29.3567 22.9028 29.5964 22.8491 29.8388 22.8519C30.1967 22.8312 30.5489 22.9486 30.8228 23.1799C30.9433 23.2944 31.0377 23.4335 31.0995 23.5878C31.1613 23.7421 31.189 23.9079 31.1808 24.0739V26.0189H30.6928V25.5799H30.6688C30.5699 25.7385 30.4322 25.8693 30.2688 25.9599C30.0869 26.066 29.8794 26.1203 29.6688 26.1169C29.4624 26.119 29.2584 26.0732 29.0728 25.9829ZM30.2048 25.5309C30.3512 25.4444 30.4733 25.3223 30.5598 25.1759C30.648 25.0285 30.694 24.8597 30.6928 24.6879C30.5831 24.6179 30.4634 24.565 30.3378 24.5309C30.1927 24.4896 30.0426 24.4687 29.8918 24.4689C29.6663 24.4523 29.442 24.5141 29.2568 24.6439C29.1882 24.6972 29.1332 24.7659 29.096 24.8444C29.0588 24.9229 29.0406 25.0091 29.0428 25.0959C29.0406 25.1745 29.0569 25.2524 29.0904 25.3235C29.1239 25.3945 29.1738 25.4567 29.2358 25.5049C29.3749 25.613 29.5477 25.6686 29.7238 25.6619C29.8926 25.663 30.0586 25.6181 30.2038 25.5319L30.2048 25.5309Z" fill="white"></path><path d="M29.6739 26.1641C29.4573 26.1678 29.2429 26.1205 29.0479 26.0261C28.8712 25.9412 28.7219 25.8086 28.6169 25.6431C28.5148 25.4762 28.4621 25.2838 28.4649 25.0881C28.4595 24.9332 28.492 24.7794 28.5596 24.64C28.6273 24.5005 28.7279 24.3797 28.8529 24.2881C29.1329 24.091 29.4697 23.9909 29.8119 24.0031C29.9894 24.002 30.1665 24.0228 30.3389 24.0651C30.4419 24.0888 30.5423 24.1223 30.6389 24.1651V24.0651C30.643 23.9686 30.6251 23.8724 30.5865 23.7838C30.5478 23.6953 30.4895 23.6167 30.4159 23.5541C30.2562 23.4189 30.052 23.3477 29.8429 23.3541C29.6859 23.3524 29.5308 23.3888 29.3909 23.4601C29.259 23.5262 29.1474 23.6268 29.0679 23.7511L29.0379 23.7991L28.5679 23.4461L28.5949 23.4051C28.723 23.2118 28.901 23.0567 29.1099 22.9561C29.3358 22.8467 29.5839 22.7912 29.8349 22.7941C30.2057 22.7742 30.5702 22.8965 30.8539 23.1361C30.9793 23.2556 31.0775 23.4007 31.1419 23.5615C31.2062 23.7223 31.2352 23.8951 31.2269 24.0681V26.0631H30.6339V25.7051C30.5388 25.8223 30.4228 25.921 30.2919 25.9961C30.1051 26.1056 29.8924 26.1629 29.6759 26.1621L29.6739 26.1641ZM29.8129 24.1051C29.4922 24.0917 29.1759 24.1841 28.9129 24.3681C28.8 24.4497 28.7092 24.5582 28.6488 24.6838C28.5884 24.8093 28.5603 24.9479 28.5669 25.0871C28.564 25.2634 28.6116 25.4369 28.7039 25.5871C28.7982 25.7363 28.9327 25.8559 29.0919 25.9321C29.2723 26.0178 29.4702 26.0603 29.6699 26.0561C29.8699 26.0589 30.0669 26.0074 30.2399 25.9071C30.3945 25.8205 30.5249 25.6963 30.6189 25.5461L30.6339 25.5211H30.7409V25.9641H31.1239V24.0741C31.1317 23.9154 31.1051 23.7569 31.0461 23.6093C30.9871 23.4618 30.897 23.3287 30.7819 23.2191C30.517 22.9975 30.1777 22.8852 29.8329 22.9051C29.5982 22.9022 29.3662 22.9539 29.1549 23.0561C28.977 23.1414 28.8231 23.2696 28.7069 23.4291L29.0069 23.6551C29.0936 23.536 29.2074 23.4394 29.3389 23.3731C29.4937 23.2945 29.6653 23.2544 29.8389 23.2561C30.0731 23.2483 30.302 23.327 30.4819 23.4771C30.5666 23.5499 30.6338 23.6409 30.6786 23.7431C30.7234 23.8454 30.7447 23.9565 30.7409 24.0681V24.3491L30.6599 24.3011C30.5502 24.2404 30.4323 24.1959 30.3099 24.1691C30.1473 24.129 29.9804 24.1088 29.8129 24.1091V24.1051ZM29.7219 25.7131C29.5338 25.7198 29.3493 25.66 29.2009 25.5441C29.1329 25.4909 29.0783 25.4224 29.0414 25.3443C29.0046 25.2661 28.9866 25.1805 28.9889 25.0941C28.9869 24.9995 29.0071 24.9058 29.0477 24.8204C29.0883 24.735 29.1483 24.6603 29.2229 24.6021C29.4176 24.4653 29.6535 24.3996 29.8909 24.4161C30.0464 24.4154 30.2012 24.4363 30.3509 24.4781C30.4828 24.5131 30.6086 24.568 30.7239 24.6411L30.7479 24.6571V24.6851C30.7489 24.866 30.7005 25.0437 30.6079 25.1991C30.5167 25.3527 30.3885 25.4809 30.2349 25.5721C30.0802 25.6657 29.9027 25.7138 29.7219 25.7131ZM29.8899 24.5211C29.6772 24.5057 29.4656 24.5632 29.2899 24.6841C29.2274 24.7324 29.1772 24.7948 29.1435 24.8663C29.1098 24.9377 29.0935 25.0161 29.0959 25.0951C29.0937 25.1657 29.1083 25.2359 29.1384 25.2998C29.1684 25.3638 29.2131 25.4197 29.2689 25.4631C29.3986 25.5631 29.5593 25.6144 29.7229 25.6081C29.883 25.6089 30.0403 25.5661 30.1779 25.4841C30.3167 25.4017 30.4325 25.2859 30.5149 25.1471C30.5929 25.0151 30.6356 24.8653 30.6389 24.7121C30.5399 24.6528 30.4333 24.6074 30.3219 24.5771C30.1813 24.5398 30.0363 24.5219 29.8909 24.5241L29.8899 24.5211Z" fill="white"></path><path d="M31.8101 22.9939H32.2981V23.4819H32.3221C32.3922 23.3032 32.5218 23.1541 32.6891 23.0599C32.8611 22.9596 33.057 22.9074 33.2561 22.9089C33.3296 22.9092 33.403 22.9165 33.4751 22.9309V23.4529C33.3843 23.4348 33.2917 23.4268 33.1991 23.4289C33.0809 23.4243 32.963 23.445 32.8533 23.4894C32.7437 23.5339 32.6447 23.6012 32.5631 23.6869C32.3962 23.8711 32.3085 24.1136 32.3191 24.3619V26.0619H31.8101V22.9939ZM34.9271 26.0529C34.8275 26.0166 34.7364 25.9604 34.6591 25.8879C34.5802 25.8118 34.5185 25.7198 34.4781 25.6179C34.4346 25.4985 34.4136 25.372 34.4161 25.2449V23.4119H33.8791V22.9479H34.4101V22.0779H34.9221V22.9479H35.6671V23.4119H34.9221V25.1229C34.9128 25.2574 34.948 25.3913 35.0221 25.5039C35.0634 25.5501 35.1147 25.5862 35.172 25.6096C35.2294 25.633 35.2913 25.643 35.3531 25.6389C35.4727 25.6385 35.5896 25.6038 35.6901 25.5389V26.0389C35.631 26.0674 35.5685 26.0882 35.5041 26.1009C35.4258 26.1143 35.3465 26.1203 35.2671 26.1189C35.1495 26.1189 35.0329 26.0972 34.9231 26.0549L34.9271 26.0529Z" fill="white"></path><path d="M35.2689 26.1689C35.1445 26.1705 35.0208 26.1495 34.9039 26.1069C34.7978 26.0674 34.7006 26.0073 34.6179 25.9299C34.5338 25.8487 34.468 25.7505 34.4249 25.6419C34.38 25.5159 34.3589 25.3826 34.3629 25.2489V23.4649H33.8269V22.8949H34.3629V22.0259H34.9839V22.8959H35.7289V23.4659H34.9839V25.1259C34.974 25.2483 35.0038 25.3707 35.0689 25.4749C35.1052 25.5148 35.15 25.546 35.2001 25.5661C35.2501 25.5862 35.3041 25.5947 35.3579 25.5909C35.4684 25.5901 35.5764 25.5574 35.6689 25.4969L35.7489 25.4459V26.0749L35.7189 26.0889C35.6551 26.1178 35.5879 26.1386 35.5189 26.1509C35.4363 26.1648 35.3526 26.1709 35.2689 26.1689ZM33.9309 23.3599H34.4669V25.2459C34.4636 25.3667 34.4826 25.487 34.5229 25.6009C34.5607 25.6945 34.618 25.7791 34.6909 25.8489C34.7629 25.9159 34.8476 25.9679 34.9399 26.0019C35.0444 26.0413 35.1552 26.061 35.2669 26.0599C35.3429 26.0613 35.4189 26.0557 35.4939 26.0429C35.5426 26.0335 35.5902 26.0191 35.6359 25.9999V25.6259C35.547 25.6688 35.4496 25.6914 35.3509 25.6919C35.281 25.6961 35.2111 25.6844 35.1465 25.6575C35.0818 25.6307 35.0242 25.5894 34.9779 25.5369C34.8963 25.4146 34.8579 25.2685 34.8689 25.1219V23.3599H35.6139V23.0019H34.8689V22.1319H34.4639V23.0019H33.9279L33.9309 23.3599ZM32.3709 26.1259H31.7539V22.9439H32.3469V23.3139C32.4247 23.1901 32.5314 23.0872 32.6579 23.0139C32.8379 22.9091 33.0427 22.8545 33.2509 22.8559C33.329 22.855 33.407 22.8614 33.4839 22.8749L33.5259 22.8839V23.5259L33.4639 23.5109C33.3767 23.4935 33.2878 23.4858 33.1989 23.4879C33.0874 23.4828 32.9761 23.5017 32.8725 23.5435C32.769 23.5852 32.6757 23.6488 32.5989 23.7299C32.4421 23.9048 32.3599 24.1342 32.3699 24.3689L32.3709 26.1259ZM31.8589 26.0259H32.2659V24.3639C32.2555 24.1023 32.3481 23.847 32.5239 23.6529C32.6105 23.5621 32.7153 23.4906 32.8315 23.4433C32.9476 23.3959 33.0725 23.3736 33.1979 23.3779C33.2728 23.3772 33.3476 23.3816 33.4219 23.3909V22.9749C33.3655 22.9678 33.3087 22.9644 33.2519 22.9649C33.0623 22.9638 32.8758 23.0136 32.7119 23.1089C32.5537 23.1979 32.4317 23.3394 32.3669 23.5089L32.3539 23.5419H32.2419V23.0539H31.8579L31.8589 26.0259Z" fill="white"></path><path d="M36.2578 22.9491H36.7458V23.4011H36.7698C36.8648 23.2371 37.0033 23.1025 37.1698 23.0121C37.3487 22.9072 37.5524 22.852 37.7598 22.8521C37.9157 22.8416 38.072 22.8649 38.2181 22.9205C38.3641 22.9761 38.4964 23.0626 38.6058 23.1741C38.8112 23.4186 38.9156 23.7323 38.8978 24.0511V26.0201H38.3948V24.1291C38.4059 24.0174 38.3939 23.9046 38.3595 23.7978C38.3251 23.6909 38.269 23.5923 38.1948 23.5081C38.0408 23.3734 37.8402 23.3041 37.6358 23.3151C37.4772 23.3128 37.322 23.3611 37.1928 23.4531C37.0631 23.5465 36.9597 23.6719 36.8928 23.8171C36.8213 23.9645 36.7843 24.1263 36.7848 24.2901V26.0181H36.2728L36.2578 22.9491Z" fill="white"></path><path d="M38.9549 26.0659H38.3379V24.1289C38.348 24.0244 38.3367 23.9188 38.3047 23.8188C38.2727 23.7188 38.2207 23.6263 38.1519 23.547C38.0069 23.422 37.819 23.3581 37.6279 23.3689C37.4804 23.3674 37.3362 23.4126 37.2159 23.4979C37.0922 23.5859 36.9933 23.7044 36.9289 23.8419C36.8622 23.9825 36.828 24.1363 36.8289 24.2919V26.0659H36.2119V22.8959H36.8049V23.266C36.9004 23.1441 37.019 23.042 37.1539 22.9659C37.341 22.8571 37.5535 22.7999 37.7699 22.7999C37.9331 22.7894 38.0967 22.8143 38.2494 22.8728C38.4021 22.9313 38.5404 23.0221 38.6549 23.1389C38.8689 23.3931 38.9782 23.7192 38.9609 24.051L38.9549 26.0659ZM38.4429 25.9659H38.8499V24.051C38.8654 23.7464 38.7654 23.447 38.5699 23.2129C38.4646 23.1079 38.338 23.0267 38.1985 22.975C38.0591 22.9232 37.9102 22.902 37.7619 22.9129C37.5638 22.9127 37.3691 22.9652 37.1979 23.065C37.0387 23.1503 36.9059 23.2776 36.8139 23.433L36.7989 23.4599H36.6909V23.0079H36.3079V25.9659H36.7149V24.2919C36.7141 24.1187 36.7531 23.9476 36.8289 23.7919C36.901 23.6381 37.0116 23.5055 37.1499 23.4069C37.2879 23.3087 37.4535 23.257 37.6229 23.259C37.8423 23.2468 38.0577 23.321 38.2229 23.4659C38.3029 23.5545 38.3638 23.6587 38.4019 23.7719C38.4399 23.8851 38.4542 24.005 38.4439 24.124L38.4429 25.9659Z" fill="white"></path><path d="M40.2129 25.9049C39.981 25.7653 39.7924 25.5642 39.6679 25.3239C39.536 25.0667 39.4693 24.7809 39.4739 24.4919C39.4717 24.2082 39.5354 23.9278 39.6599 23.6729C39.7758 23.4292 39.9559 23.2218 40.1809 23.0729C40.4138 22.9221 40.6865 22.8445 40.9639 22.8499C41.2384 22.8424 41.5096 22.9117 41.7469 23.0499C41.9667 23.1835 42.1434 23.3776 42.2559 23.6089C42.3779 23.8623 42.4389 24.1407 42.4339 24.4219C42.4348 24.4748 42.4287 24.5276 42.4159 24.5789H39.9889C39.9937 24.7868 40.0519 24.99 40.1579 25.1689C40.25 25.3223 40.3825 25.4475 40.5409 25.5309C40.6902 25.6103 40.8568 25.6518 41.0259 25.6519C41.2144 25.6547 41.3998 25.6042 41.5608 25.5062C41.7218 25.4081 41.8519 25.2666 41.9359 25.0979L42.3709 25.3089C42.2461 25.5494 42.0602 25.7529 41.8319 25.8989C41.5871 26.0398 41.3097 26.1145 41.0272 26.1156C40.7447 26.1166 40.4668 26.044 40.2209 25.9049H40.2129ZM41.8899 24.1589C41.8797 24.0242 41.8427 23.893 41.7809 23.7729C41.7125 23.6392 41.6087 23.5267 41.4809 23.4479C41.3236 23.3547 41.1427 23.3088 40.9599 23.3159C40.7339 23.3102 40.5146 23.3931 40.3489 23.5469C40.1776 23.7106 40.0627 23.9246 40.0209 24.1579L41.8899 24.1589Z" fill="white"></path><path d="M41.0031 26.164C40.7162 26.1681 40.4337 26.0927 40.1871 25.946C39.9474 25.8018 39.7522 25.5942 39.6231 25.346C39.4871 25.0804 39.4184 24.7854 39.4231 24.487C39.4203 24.1955 39.485 23.9073 39.6121 23.645C39.7326 23.3944 39.9189 23.1811 40.1511 23.028C40.393 22.8715 40.6761 22.7907 40.9641 22.796C41.2477 22.7897 41.5274 22.8624 41.7721 23.006C42.0001 23.144 42.1838 23.3447 42.3011 23.584C42.4274 23.8444 42.4911 24.1306 42.4871 24.42C42.4878 24.4773 42.4811 24.5344 42.4671 24.59L42.4561 24.629H40.0471C40.0579 24.8088 40.1118 24.9833 40.2041 25.138C40.2914 25.2831 40.4165 25.4017 40.5661 25.481C40.7079 25.5558 40.8658 25.5949 41.0261 25.595C41.2053 25.5985 41.3818 25.5507 41.5349 25.4574C41.6879 25.364 41.8112 25.2289 41.8901 25.068L41.9151 25.026L42.4421 25.282L42.4171 25.33C42.2871 25.5786 42.0944 25.7888 41.8581 25.94C41.6007 26.0956 41.3038 26.1734 41.0031 26.164ZM40.2411 25.853C40.4783 25.9866 40.7462 26.0562 41.0184 26.0552C41.2906 26.0541 41.5579 25.9824 41.7941 25.847C42.0008 25.7164 42.1725 25.5372 42.2941 25.325L41.9541 25.16C41.8624 25.326 41.7272 25.4638 41.5629 25.5586C41.3987 25.6534 41.2117 25.7016 41.0221 25.698C40.8449 25.6985 40.6702 25.656 40.5131 25.574C40.3479 25.4854 40.2097 25.3537 40.1131 25.193C40.0032 25.0063 39.9426 24.7946 39.9371 24.578V24.523H42.3771C42.3826 24.4899 42.3852 24.4565 42.3851 24.423C42.3899 24.1499 42.331 23.8794 42.2131 23.633C42.104 23.4114 41.934 23.2255 41.7231 23.097C41.4943 22.9636 41.2329 22.8964 40.9681 22.903C40.7011 22.8975 40.4385 22.9721 40.2141 23.117C39.9987 23.2601 39.8259 23.4588 39.7141 23.692C39.5937 23.9413 39.5328 24.2152 39.5361 24.492C39.5322 24.7728 39.5975 25.0503 39.7261 25.3C39.8467 25.5311 40.0287 25.7246 40.2521 25.859L40.2411 25.853ZM41.9411 24.204H39.9471L39.9601 24.142C40.0042 23.8979 40.1246 23.6742 40.3041 23.503C40.4791 23.3389 40.7112 23.2496 40.9511 23.254C41.1441 23.247 41.335 23.2956 41.5011 23.394C41.6382 23.4775 41.7496 23.5972 41.8231 23.74C41.888 23.8663 41.9268 24.0044 41.9371 24.146L41.9411 24.204ZM40.0771 24.104H41.8261C41.8104 23.9955 41.7766 23.8903 41.7261 23.793C41.6602 23.6689 41.5617 23.5652 41.4411 23.493C41.292 23.4055 41.1209 23.3625 40.9481 23.369C40.7355 23.3639 40.5293 23.4418 40.3731 23.586C40.2239 23.7275 40.1196 23.9097 40.0731 24.11L40.0771 24.104Z" fill="white"></path><path d="M43.0201 22.9489H43.5081V23.4489H43.5321C43.5982 23.2733 43.721 23.1247 43.8811 23.0269C44.0413 22.9188 44.2298 22.8603 44.4231 22.8589C44.547 22.8557 44.6703 22.8782 44.7851 22.9249V23.4739C44.6499 23.4069 44.5009 23.3727 44.3501 23.3739C44.2043 23.3725 44.0616 23.4158 43.9411 23.4979C43.8137 23.5846 43.7105 23.7023 43.6411 23.8399C43.5667 23.9821 43.5282 24.1404 43.5291 24.3009V26.0209H43.0171L43.0201 22.9489Z" fill="white"></path><path d="M43.5842 26.07H42.9702V22.896H43.5632V23.264C43.6389 23.1485 43.7384 23.0507 43.8552 22.977C44.0241 22.8633 44.2226 22.8017 44.4262 22.8C44.5574 22.7971 44.6878 22.8213 44.8092 22.871L44.8412 22.885V23.553L44.7652 23.515C44.6371 23.4531 44.4964 23.422 44.3542 23.424C44.2184 23.4234 44.0858 23.4646 43.9742 23.542C43.8548 23.6239 43.7581 23.7346 43.6932 23.864C43.623 23.9982 43.5867 24.1475 43.5872 24.299L43.5842 26.07ZM43.0722 25.97H43.4792V24.299C43.4781 24.1299 43.5182 23.9631 43.5962 23.813C43.6695 23.6686 43.7778 23.5448 43.9112 23.453C44.0403 23.364 44.1934 23.3166 44.3502 23.317C44.4803 23.3157 44.6096 23.3388 44.7312 23.385V22.95C44.6313 22.9153 44.526 22.8987 44.4202 22.901C44.2372 22.9028 44.0588 22.9585 43.9072 23.061C43.7559 23.1538 43.6401 23.2946 43.5782 23.461L43.5662 23.496H43.4522V22.996H43.0702L43.0722 25.97Z" fill="white"></path><path d="M1.5 1.50198V39.4966L46.7451 39.4999V1.59146L1.5 1.50198ZM0.5 0.5L47.7451 0.593441V40.5L0.5 40.4966V0.5Z" fill="white"></path><path d="M1.5 32.1814V39.4994L46.7451 39.5001V32.2022L1.5 32.1814ZM0.5 31.1809L47.7451 31.2027V40.5001L0.5 40.4993V31.1809Z" fill="white"></path><path d="M30.5302 37.035H31.9852V37.6H29.7202V37.13L29.7552 37.09C29.9702 36.84 30.6802 35.975 30.7302 35.91L30.7752 35.855C31.0852 35.465 31.3302 35.16 31.3302 34.855C31.3302 34.54 31.1252 34.305 30.8552 34.305C30.5452 34.305 30.3352 34.505 30.2752 34.845L30.2452 34.995L29.7002 34.89L29.7302 34.745C29.7852 34.445 29.9202 34.195 30.1202 34.015C30.3202 33.835 30.5752 33.74 30.8552 33.74C31.1502 33.74 31.4152 33.865 31.6052 34.08C31.7852 34.285 31.8802 34.56 31.8802 34.855C31.8802 35.355 31.6002 35.715 31.2402 36.165L31.2352 36.17C31.2102 36.205 31.1852 36.235 31.1602 36.27L31.1552 36.275C31.1452 36.29 31.0702 36.375 30.9902 36.475C30.8602 36.635 30.6802 36.855 30.5302 37.035ZM34.8369 34.395C35.0419 34.74 35.1519 35.205 35.1519 35.7C35.1519 36.2 35.0419 36.665 34.8369 37.015C34.5919 37.44 34.2219 37.665 33.7719 37.665C33.3269 37.665 32.9569 37.445 32.7119 37.03C32.5019 36.685 32.3869 36.21 32.3869 35.7C32.3869 35.205 32.4969 34.74 32.7019 34.395C32.9519 33.965 33.3219 33.74 33.7719 33.74C34.2219 33.74 34.5919 33.965 34.8369 34.395ZM33.7719 37.095C34.3869 37.095 34.6019 36.345 34.6019 35.7C34.6019 35.055 34.3869 34.305 33.7719 34.305C33.1569 34.305 32.9369 35.055 32.9369 35.7C32.9369 36.345 33.1569 37.095 33.7719 37.095ZM36.3577 37.035H37.8127V37.6H35.5477V37.13L35.5827 37.09C35.7977 36.84 36.5077 35.975 36.5577 35.91L36.6027 35.855C36.9127 35.465 37.1577 35.16 37.1577 34.855C37.1577 34.54 36.9527 34.305 36.6827 34.305C36.3727 34.305 36.1627 34.505 36.1027 34.845L36.0727 34.995L35.5277 34.89L35.5577 34.745C35.6127 34.445 35.7477 34.195 35.9477 34.015C36.1477 33.835 36.4027 33.74 36.6827 33.74C36.9777 33.74 37.2427 33.865 37.4327 34.08C37.6127 34.285 37.7077 34.56 37.7077 34.855C37.7077 35.355 37.4277 35.715 37.0677 36.165L37.0627 36.17C37.0377 36.205 37.0127 36.235 36.9877 36.27L36.9827 36.275C36.9727 36.29 36.8977 36.375 36.8177 36.475C36.6877 36.635 36.5077 36.855 36.3577 37.035ZM40.3363 36.205H40.8113V36.775H40.3363V37.6H39.7863V36.775H38.1363V36.31L39.7463 33.8H40.3363V36.205ZM38.8463 36.205H39.7863V34.75L38.8463 36.205Z" fill="white"></path></g></g><defs><clipPath id="clip0_3666_164"><rect width="48" height="40" fill="white" transform="translate(0.5 0.5)"></rect></clipPath></defs></svg> 