<?xml version="1.0" encoding="UTF-8"?> <svg xmlns="http://www.w3.org/2000/svg" width="233" height="80" viewBox="0 0 233 80" fill="none"><g clip-path="url(#clip0_3666_88)"><mask id="mask0_3666_88" style="mask-type:luminance" maskUnits="userSpaceOnUse" x="0" y="0" width="233" height="80"><path d="M232.972 0H0V79.289H232.972V0Z" fill="white"></path></mask><g mask="url(#mask0_3666_88)"><path d="M232.472 0.5H0.5V78.789H232.472V0.5Z" stroke="white"></path><path d="M29.497 0.5H0.5V78.789H29.497V0.5Z" stroke="white"></path><path d="M71.9941 17.9251V26.6051H70.4861V19.8051H70.4621L67.7681 26.6051H66.7681L64.0091 19.8051H63.9911V26.6051H62.6001V17.9251H64.7611L67.2551 24.3591H67.2921L69.9251 17.9251H71.9941ZM73.2551 18.5851C73.253 18.4706 73.2754 18.357 73.321 18.2519C73.3665 18.1469 73.4341 18.0528 73.5191 17.9761C73.6878 17.8152 73.913 17.7272 74.1461 17.7311C74.2635 17.7282 74.3803 17.7489 74.4896 17.792C74.5989 17.8351 74.6983 17.8998 74.7821 17.9821C74.8631 18.0595 74.9273 18.1527 74.9708 18.2559C75.0143 18.3591 75.0362 18.4701 75.0351 18.5821C75.0375 18.6948 75.0156 18.8068 74.9709 18.9103C74.9262 19.0138 74.8598 19.1065 74.7761 19.1821C74.6039 19.3429 74.3756 19.4298 74.1401 19.4241C74.0231 19.4274 73.9067 19.4075 73.7975 19.3654C73.6883 19.3234 73.5886 19.26 73.5041 19.1791C73.4213 19.1029 73.3555 19.01 73.3111 18.9066C73.2666 18.8032 73.2445 18.6916 73.2461 18.5791L73.2551 18.5851ZM74.8711 20.3851V26.6081H73.4061V20.3821L74.8711 20.3851ZM79.3141 25.5471C79.5615 25.5388 79.8053 25.4849 80.0331 25.3881C80.2925 25.2884 80.5371 25.1538 80.7601 24.9881V26.3491C80.5095 26.4877 80.24 26.5887 79.9601 26.6491C79.639 26.7194 79.3108 26.753 78.9821 26.7491C78.5708 26.7678 78.1602 26.7004 77.7764 26.5515C77.3926 26.4025 77.0441 26.1751 76.7532 25.8839C76.4622 25.5926 76.2352 25.2439 76.0866 24.86C75.938 24.476 75.871 24.0653 75.8901 23.6541C75.8567 22.7489 76.1709 21.8652 76.7681 21.1841C77.0874 20.8515 77.4752 20.5923 77.9047 20.4245C78.3341 20.2567 78.7949 20.1842 79.2551 20.2121C79.5358 20.2111 79.8156 20.2447 80.0881 20.3121C80.322 20.3646 80.5482 20.447 80.7611 20.5571V21.9701C80.5481 21.8117 80.3151 21.6823 80.0681 21.5851C79.8378 21.496 79.593 21.4503 79.3461 21.4501C79.0863 21.4392 78.8272 21.4836 78.5859 21.5803C78.3445 21.677 78.1265 21.8238 77.9461 22.0111C77.5743 22.4274 77.3817 22.9736 77.4101 23.5311C77.3934 23.7978 77.4298 24.0651 77.5172 24.3176C77.6046 24.5701 77.7412 24.8028 77.9191 25.0021C78.1017 25.1814 78.3195 25.3207 78.5588 25.4112C78.7981 25.5018 79.0536 25.5416 79.3091 25.5281L79.3141 25.5471ZM84.9261 20.2911C85.0326 20.2901 85.139 20.2981 85.2441 20.3151C85.324 20.3283 85.4026 20.3483 85.4791 20.3751V21.8571C85.3752 21.7879 85.2616 21.7343 85.1421 21.6981C84.9688 21.6436 84.7877 21.618 84.6061 21.6221C84.4299 21.6212 84.256 21.6613 84.0979 21.739C83.9399 21.8167 83.802 21.9301 83.6951 22.0701C83.4151 22.4807 83.2839 22.9747 83.3231 23.4701V26.6121H81.8581V20.3821H83.3231V21.3631H83.3471C83.4633 21.0428 83.6722 20.7643 83.9471 20.5631C84.2366 20.3644 84.5821 20.2635 84.9331 20.2751L84.9261 20.2911ZM85.5621 23.5911C85.5382 23.146 85.6028 22.7006 85.7523 22.2808C85.9019 21.8609 86.1332 21.4749 86.4331 21.1451C86.7522 20.8357 87.132 20.5959 87.5486 20.441C87.9652 20.286 88.4094 20.2193 88.8531 20.2451C89.2727 20.2212 89.6926 20.2862 90.0853 20.4357C90.478 20.5853 90.8347 20.8161 91.1321 21.1131C91.6721 21.7905 91.9619 22.6334 91.9526 23.4997C91.9433 24.3659 91.6355 25.2024 91.0811 25.8681C90.7692 26.1743 90.3972 26.4123 89.9886 26.5673C89.5799 26.7222 89.1435 26.7906 88.7071 26.7681C88.286 26.7901 87.8648 26.726 87.4694 26.5797C87.0739 26.4334 86.7124 26.2079 86.4071 25.9171C86.1154 25.6059 85.8902 25.2385 85.7451 24.8374C85.6 24.4363 85.5381 24.0099 85.5631 23.5841L85.5621 23.5911ZM87.0871 23.5431C87.0503 24.0766 87.2069 24.6055 87.5281 25.0331C87.6878 25.209 87.8851 25.3466 88.1053 25.4356C88.3256 25.5246 88.5631 25.5627 88.8001 25.5471C89.029 25.562 89.2581 25.5233 89.4694 25.4341C89.6807 25.3448 89.8682 25.2075 90.0171 25.0331C90.3257 24.5871 90.4732 24.0492 90.4351 23.5081C90.4739 22.9675 90.3205 22.4306 90.0021 21.9921C89.8522 21.8201 89.665 21.6846 89.4548 21.5959C89.2446 21.5072 89.0169 21.4676 88.7891 21.4801C88.5536 21.4672 88.3182 21.5089 88.1014 21.6019C87.8846 21.6949 87.6922 21.8366 87.5391 22.0161C87.2191 22.4568 87.0638 22.9957 87.1001 23.5391L87.0871 23.5431ZM94.1321 22.0241C94.1276 22.1162 94.1431 22.2081 94.1776 22.2936C94.2122 22.3791 94.2649 22.456 94.3321 22.5191C94.6036 22.7103 94.9013 22.8612 95.2161 22.9671C95.686 23.1232 96.1099 23.3933 96.4501 23.7531C96.6897 24.0543 96.8154 24.4304 96.8051 24.8151C96.8133 25.0869 96.7566 25.3567 96.6395 25.6021C96.5224 25.8475 96.3485 26.0615 96.1321 26.2261C95.602 26.6067 94.9577 26.7947 94.3061 26.7591C94.0184 26.756 93.7316 26.7245 93.4501 26.6651C93.1755 26.6151 92.9072 26.535 92.6501 26.4261V24.9881C92.9155 25.1736 93.2048 25.3223 93.5101 25.4301C93.7774 25.5301 94.0598 25.5839 94.3451 25.5891C94.5973 25.6053 94.8496 25.5571 95.0781 25.4491C95.1567 25.4004 95.2203 25.3309 95.2618 25.2483C95.3033 25.1657 95.321 25.0732 95.3131 24.9811C95.3137 24.8827 95.2919 24.7854 95.2493 24.6967C95.2067 24.6079 95.1444 24.5301 95.0671 24.4691C94.7819 24.2664 94.469 24.1057 94.1381 23.9921C93.6983 23.8353 93.3035 23.5734 92.9881 23.2291C92.7537 22.9199 92.6346 22.5387 92.6511 22.1511C92.6468 21.8841 92.7056 21.6198 92.8225 21.3797C92.9394 21.1396 93.1113 20.9304 93.3241 20.7691C93.8205 20.3911 94.4338 20.1992 95.0571 20.2271C95.3031 20.2296 95.5484 20.2536 95.7901 20.2991C96.0206 20.3375 96.2463 20.4009 96.4631 20.4881V21.8781C96.2531 21.7391 96.0272 21.6259 95.7901 21.5411C95.5441 21.4504 95.2843 21.403 95.0221 21.4011C94.7943 21.3868 94.5676 21.4423 94.3721 21.5601C94.2967 21.6085 94.2351 21.6755 94.1932 21.7547C94.1513 21.8339 94.1306 21.9226 94.1331 22.0121L94.1321 22.0241ZM97.4321 23.5951C97.4082 23.15 97.4728 22.7046 97.6223 22.2848C97.7719 21.8649 98.0033 21.4789 98.3031 21.1491C98.6222 20.8397 99.002 20.5999 99.4186 20.445C99.8352 20.29 100.279 20.2233 100.723 20.2491C101.143 20.2252 101.562 20.2902 101.955 20.4397C102.348 20.5893 102.705 20.8201 103.002 21.1171C103.542 21.7945 103.832 22.6374 103.822 23.5037C103.813 24.3699 103.505 25.2064 102.951 25.8721C102.639 26.1781 102.267 26.4161 101.859 26.5711C101.45 26.726 101.014 26.7944 100.578 26.7721C100.157 26.7941 99.7358 26.73 99.3404 26.5837C98.9449 26.4374 98.5834 26.2119 98.2781 25.9211C97.9853 25.61 97.7592 25.2422 97.6137 24.8405C97.4682 24.4388 97.4064 24.0116 97.4321 23.5851V23.5951ZM98.9571 23.5471C98.9206 24.0807 99.0775 24.6097 99.3991 25.0371C99.5584 25.2134 99.7557 25.3513 99.976 25.4403C100.196 25.5293 100.434 25.5672 100.671 25.5511C100.902 25.566 101.133 25.5265 101.346 25.4356C101.559 25.3448 101.747 25.2052 101.896 25.0281C102.205 24.5821 102.352 24.0442 102.314 23.5031C102.353 22.9625 102.199 22.4256 101.881 21.9871C101.731 21.8151 101.544 21.6796 101.334 21.5909C101.123 21.5022 100.896 21.4626 100.668 21.4751C100.432 21.4622 100.197 21.5039 99.9804 21.5969C99.7636 21.6899 99.5712 21.8316 99.4181 22.0111C99.0942 22.4521 98.9356 22.993 98.9701 23.5391L98.9571 23.5471ZM108.683 21.5931H106.493V26.6171H105.011V21.5811H103.971V20.3811H105.011V19.5131C105 19.2157 105.051 18.9192 105.16 18.6424C105.27 18.3657 105.436 18.1146 105.647 17.9051C105.864 17.696 106.121 17.5327 106.402 17.4249C106.684 17.3172 106.984 17.2673 107.285 17.2781C107.444 17.2766 107.604 17.2857 107.762 17.3051C107.886 17.3206 108.008 17.3484 108.126 17.3881V18.6601C108.044 18.6193 107.959 18.5859 107.872 18.5601C107.737 18.5177 107.596 18.4974 107.454 18.5001C107.322 18.4921 107.19 18.5139 107.067 18.5637C106.944 18.6135 106.834 18.6902 106.745 18.7881C106.563 19.0323 106.475 19.3335 106.497 19.6371V20.3881H108.679V18.9911L110.15 18.5431V20.3831H111.634V21.5831H110.152V24.4951C110.124 24.7815 110.198 25.0685 110.36 25.3061C110.446 25.3904 110.549 25.4551 110.663 25.4957C110.776 25.5363 110.897 25.5518 111.017 25.5411C111.122 25.5377 111.226 25.5174 111.324 25.4811C111.436 25.4459 111.542 25.3972 111.642 25.3361V26.5461C111.495 26.6167 111.34 26.6658 111.179 26.6921C110.97 26.7361 110.757 26.7585 110.543 26.7591C110.29 26.7782 110.036 26.744 109.797 26.6587C109.557 26.5735 109.339 26.439 109.155 26.2641C108.816 25.8466 108.651 25.3151 108.692 24.7791L108.683 21.5931Z" fill="white"></path><path d="M50.6699 15.032H43.7949V21.907H50.6699V15.032Z" fill="white"></path><path d="M58.2598 15.032H51.3848V21.907H58.2598V15.032Z" fill="white"></path><path d="M50.6699 22.6221H43.7949V29.4971H50.6699V22.6221Z" fill="white"></path><path d="M58.2598 22.6221H51.3848V29.4971H58.2598V22.6221Z" fill="white"></path><path d="M122.866 26.4899H121.392L120.662 24.4229H117.481L116.781 26.4899H115.312L118.343 18.3799H119.857L122.866 26.4899ZM120.306 23.3319L119.183 20.0989C119.134 19.932 119.096 19.7619 119.07 19.5899H119.048C119.024 19.7623 118.986 19.9325 118.935 20.0989L117.822 23.3319H120.306Z" fill="white"></path><path d="M129.093 26.4921H127.783V25.5091H127.761C127.579 25.8183 127.326 26.0798 127.023 26.272C126.72 26.4642 126.376 26.5817 126.018 26.6146C125.661 26.6475 125.301 26.595 124.968 26.4613C124.635 26.3277 124.338 26.1169 124.103 25.8461C123.648 25.2374 123.423 24.4876 123.467 23.729C123.425 22.9027 123.676 22.0883 124.176 21.4291C124.402 21.148 124.69 20.9234 125.018 20.7732C125.346 20.6231 125.705 20.5514 126.065 20.564C126.408 20.5428 126.75 20.6198 127.051 20.7859C127.352 20.952 127.6 21.2005 127.765 21.5021H127.787V17.925H129.097L129.093 26.4921ZM127.799 23.847V23.088C127.808 22.7003 127.664 22.3246 127.399 22.042C127.269 21.902 127.11 21.7914 126.934 21.7174C126.757 21.6434 126.567 21.6079 126.376 21.6131C126.153 21.604 125.932 21.6489 125.731 21.7442C125.529 21.8394 125.354 21.9821 125.22 22.16C124.916 22.6062 124.768 23.1407 124.799 23.68C124.771 24.1763 124.912 24.6675 125.199 25.073C125.327 25.2388 125.492 25.3717 125.681 25.4608C125.87 25.5498 126.078 25.5924 126.287 25.585C126.495 25.5913 126.701 25.5499 126.89 25.4641C127.079 25.3783 127.246 25.2503 127.378 25.09C127.664 24.7397 127.813 24.297 127.796 23.845L127.799 23.847Z" fill="white"></path><path d="M135.789 20.7051L133.548 26.4921H132.129L129.996 20.7051H131.427L132.71 24.7461C132.798 25.0009 132.859 25.2644 132.891 25.5321H132.909C132.939 25.2754 132.992 25.022 133.068 24.7751L134.415 20.7071L135.789 20.7051Z" fill="white"></path><path d="M141.483 23.9551H137.539C137.532 24.1837 137.573 24.4113 137.658 24.6236C137.743 24.8359 137.871 25.0284 138.034 25.1891C138.395 25.496 138.861 25.6514 139.334 25.6231C139.945 25.625 140.541 25.4312 141.034 25.0701V26.1281C140.398 26.4884 139.673 26.6617 138.943 26.6281C138.573 26.6481 138.203 26.5882 137.858 26.4526C137.512 26.317 137.201 26.1088 136.943 25.8421C136.426 25.223 136.166 24.4292 136.216 23.6241C136.183 22.8141 136.47 22.0237 137.016 21.4241C137.267 21.1491 137.575 20.9309 137.917 20.7842C138.26 20.6374 138.629 20.5654 139.002 20.5731C139.346 20.5534 139.69 20.6118 140.008 20.7439C140.326 20.8761 140.61 21.0785 140.839 21.3361C141.303 21.9414 141.533 22.693 141.489 23.4541L141.483 23.9551ZM140.211 23.0281C140.231 22.6333 140.112 22.244 139.874 21.9281C139.764 21.7987 139.625 21.6961 139.469 21.628C139.313 21.5599 139.144 21.5282 138.974 21.5351C138.795 21.5327 138.617 21.5682 138.453 21.6392C138.289 21.7102 138.141 21.8151 138.02 21.9471C137.749 22.2467 137.582 22.6253 137.543 23.0271L140.211 23.0281Z" fill="white"></path><path d="M146.088 21.9531C145.887 21.8163 145.646 21.7508 145.404 21.7671C145.211 21.7681 145.022 21.8166 144.852 21.9083C144.683 22.0001 144.538 22.1322 144.432 22.2931C144.151 22.7157 144.015 23.2176 144.042 23.7241V26.4931H142.732V20.7051H144.042V21.8991H144.064C144.167 21.5315 144.372 21.2008 144.656 20.9451C144.901 20.7269 145.219 20.6069 145.547 20.6081C145.734 20.5995 145.921 20.6384 146.089 20.7211L146.088 21.9531Z" fill="white"></path><path d="M150.403 26.4269C150.085 26.5672 149.74 26.6329 149.393 26.6189C148.27 26.6189 147.709 26.0802 147.709 25.0029V21.7329H146.755V20.7019H147.722V19.3639L149.032 18.9919V20.7019H150.417V21.7339H149.032V24.6339C149.008 24.893 149.074 25.1523 149.218 25.3689C149.299 25.4498 149.396 25.5119 149.504 25.5506C149.611 25.5894 149.726 25.6038 149.84 25.5929C150.049 25.5978 150.253 25.5299 150.417 25.4009L150.403 26.4269Z" fill="white"></path><path d="M152.193 19.4919C151.989 19.4969 151.791 19.4223 151.641 19.2839C151.567 19.2169 151.509 19.1347 151.471 19.043C151.432 18.9513 151.414 18.8524 151.417 18.7529C151.414 18.6525 151.432 18.5525 151.471 18.4597C151.51 18.367 151.568 18.2835 151.641 18.2149C151.79 18.0733 151.988 17.9961 152.193 17.9999C152.401 17.996 152.602 18.0731 152.754 18.2149C152.829 18.2826 152.889 18.3657 152.928 18.4586C152.968 18.5515 152.988 18.6519 152.985 18.7529C152.986 18.8514 152.966 18.9489 152.926 19.0389C152.886 19.129 152.828 19.2095 152.754 19.2749C152.602 19.4175 152.401 19.4953 152.193 19.4919ZM152.843 26.4919H151.533V20.6979H152.843V26.4919Z" fill="white"></path><path d="M154.191 26.3119V25.0929C154.653 25.4571 155.225 25.6548 155.813 25.6539C156.604 25.6539 156.999 25.4206 156.999 24.9539C157.003 24.8338 156.968 24.7156 156.899 24.6169C156.824 24.5182 156.731 24.4344 156.625 24.3699C156.496 24.2922 156.36 24.2278 156.218 24.1779L155.696 23.9859C155.478 23.8997 155.265 23.7995 155.06 23.6859C154.883 23.5917 154.722 23.4706 154.583 23.3269C154.458 23.1958 154.361 23.0411 154.297 22.8719C154.228 22.6819 154.194 22.481 154.197 22.2789C154.192 22.0189 154.262 21.7629 154.397 21.5409C154.532 21.3251 154.713 21.142 154.928 21.0049C155.161 20.8549 155.416 20.7441 155.685 20.6769C155.971 20.602 156.265 20.564 156.56 20.5639C157.048 20.557 157.533 20.6393 157.991 20.8069V21.9539C157.579 21.6737 157.09 21.5277 156.591 21.5359C156.44 21.5343 156.29 21.5514 156.143 21.5869C156.024 21.6162 155.91 21.6642 155.806 21.7289C155.716 21.7835 155.64 21.8572 155.582 21.9449C155.53 22.0289 155.503 22.1261 155.504 22.2249C155.5 22.3361 155.527 22.4462 155.582 22.5429C155.642 22.6345 155.723 22.7111 155.817 22.7669C155.934 22.8402 156.059 22.9008 156.189 22.9479C156.333 23.0032 156.5 23.0626 156.689 23.1259C156.919 23.2205 157.143 23.3266 157.362 23.4439C157.546 23.5398 157.717 23.6606 157.868 23.8029C158.004 23.9346 158.112 24.092 158.186 24.2659C158.265 24.4645 158.304 24.6771 158.299 24.8909C158.306 25.1606 158.237 25.4269 158.099 25.6589C157.962 25.8787 157.777 26.0642 157.557 26.2009C157.315 26.3506 157.049 26.4581 156.771 26.5189C156.464 26.5882 156.15 26.6217 155.836 26.6189C155.27 26.6352 154.708 26.5295 154.187 26.3089L154.191 26.3119Z" fill="white"></path><path d="M160.205 19.4921C160.001 19.4971 159.803 19.4225 159.653 19.2841C159.579 19.2171 159.521 19.1349 159.483 19.0432C159.444 18.9515 159.426 18.8526 159.429 18.7531C159.426 18.6528 159.445 18.5531 159.483 18.4605C159.522 18.3679 159.58 18.2846 159.653 18.2161C159.802 18.0745 160 17.9973 160.205 18.0011C160.413 17.9972 160.614 18.0743 160.766 18.2161C160.841 18.2837 160.901 18.3668 160.941 18.4597C160.981 18.5525 161 18.653 160.998 18.7541C160.999 18.8526 160.979 18.9502 160.939 19.0402C160.899 19.1303 160.84 19.2107 160.766 19.2761C160.614 19.4183 160.413 19.4958 160.205 19.4921ZM160.855 26.4921H159.545V20.6981H160.855V26.4921Z" fill="white"></path><path d="M167.721 26.4921H166.407V23.2321C166.407 22.1521 166.025 21.6114 165.26 21.6101C165.072 21.6058 164.886 21.6439 164.714 21.7214C164.543 21.799 164.392 21.914 164.271 22.0581C164.005 22.3741 163.866 22.7775 163.881 23.1901V26.4901H162.564V20.7111H163.881V21.6651H163.903C164.083 21.3254 164.354 21.0425 164.685 20.8482C165.017 20.6539 165.396 20.5558 165.78 20.5651C166.051 20.5484 166.323 20.5952 166.573 20.7018C166.823 20.8084 167.045 20.9718 167.221 21.1791C167.586 21.695 167.762 22.3206 167.721 22.9511V26.4921Z" fill="white"></path><path d="M174.586 26.0271C174.646 26.4605 174.604 26.9019 174.464 27.3164C174.324 27.731 174.09 28.1073 173.779 28.4157C173.469 28.7242 173.091 28.9563 172.676 29.0938C172.261 29.2313 171.819 29.2705 171.386 29.2081C170.709 29.2234 170.037 29.0946 169.414 28.8301V27.6371C169.957 27.9715 170.577 28.1584 171.214 28.1791C171.492 28.2219 171.776 28.1993 172.044 28.1131C172.311 28.0269 172.555 27.8794 172.756 27.6824C172.956 27.4854 173.108 27.2444 173.2 26.9784C173.291 26.7124 173.319 26.4288 173.281 26.1501V25.5121H173.246C173.062 25.8191 172.808 26.0783 172.505 26.2688C172.202 26.4594 171.859 26.5758 171.503 26.6086C171.146 26.6414 170.787 26.5898 170.454 26.4578C170.122 26.3258 169.825 26.1173 169.588 25.8491C169.132 25.2595 168.903 24.5263 168.941 23.7821C168.898 22.9429 169.145 22.1145 169.641 21.4361C169.868 21.1509 170.159 20.9234 170.491 20.7722C170.822 20.621 171.185 20.5504 171.549 20.5661C171.892 20.5486 172.232 20.6272 172.533 20.7929C172.833 20.9587 173.081 21.205 173.249 21.5041H173.271V20.7041H174.581L174.586 26.0271ZM173.286 23.8401V23.0861C173.295 22.6994 173.151 22.3248 172.886 22.0431C172.759 21.9028 172.602 21.7915 172.428 21.7168C172.254 21.6421 172.066 21.6057 171.876 21.6101C171.651 21.6004 171.428 21.6453 171.225 21.7412C171.021 21.837 170.844 21.9807 170.709 22.1601C170.404 22.6131 170.256 23.1538 170.288 23.6991C170.262 24.186 170.403 24.6672 170.688 25.0631C170.813 25.2272 170.975 25.3592 171.161 25.4483C171.347 25.5373 171.552 25.5808 171.758 25.5751C171.966 25.5813 172.173 25.5404 172.364 25.4556C172.554 25.3708 172.723 25.2441 172.858 25.0851C173.149 24.736 173.301 24.2913 173.283 23.8371L173.286 23.8401Z" fill="white"></path><path d="M45.5049 64.5609V61.7609C45.8545 62.0632 46.2413 62.3196 46.6559 62.5239C47.1108 62.7533 47.5837 62.9449 48.0699 63.0969C48.5577 63.2511 49.0556 63.3717 49.5599 63.4579C50.0172 63.5388 50.4805 63.5813 50.9449 63.5849C52.0939 63.6684 53.2397 63.3837 54.2159 62.7719C54.7486 62.3217 55.1107 61.7023 55.2417 61.0173C55.3728 60.3322 55.2648 59.623 54.9359 59.0079C54.6746 58.578 54.3355 58.2006 53.9359 57.8949C53.4655 57.5326 52.9635 57.2133 52.4359 56.9409C51.8572 56.6356 51.2339 56.3132 50.5659 55.9739C49.8599 55.6152 49.2006 55.2526 48.5879 54.8859C48.0122 54.5445 47.4786 54.1367 46.9979 53.6709C46.5541 53.2403 46.1931 52.7319 45.9329 52.1709C45.6437 51.4707 45.5133 50.715 45.5512 49.9583C45.5891 49.2016 45.7942 48.4628 46.1519 47.7949C46.5492 47.1216 47.0925 46.5461 47.7419 46.1109C48.4311 45.6554 49.1931 45.3209 49.9949 45.1219C50.8384 44.9075 51.7056 44.8007 52.5759 44.8039C54.0666 44.7108 55.5591 44.9569 56.9409 45.5239V48.1939C55.5721 47.3177 53.9667 46.8841 52.3429 46.9519C51.8208 46.9515 51.3001 47.0048 50.7889 47.1109C50.3007 47.2085 49.8325 47.3877 49.4039 47.6409C49.0074 47.878 48.6694 48.2013 48.4149 48.5869C48.1502 49.0099 48.0173 49.5021 48.0329 50.0009C48.0203 50.4665 48.1194 50.9284 48.3219 51.3479C48.5334 51.747 48.8248 52.0983 49.1779 52.3799C49.6068 52.7236 50.068 53.025 50.5549 53.2799C51.0969 53.5726 51.7209 53.8906 52.4269 54.2339C53.1529 54.5926 53.8419 54.9696 54.4939 55.3649C55.1124 55.7359 55.6861 56.1768 56.2039 56.6789C56.6799 57.1389 57.0742 57.6766 57.3699 58.2689C57.6667 58.8949 57.8143 59.5812 57.8009 60.2739C57.8282 61.1555 57.6259 62.029 57.2139 62.8089C56.8316 63.4904 56.2889 64.0684 55.6329 64.4929C54.9293 64.9426 54.1501 65.2611 53.3329 65.4329C52.4329 65.629 51.514 65.7259 50.5929 65.7219C50.1958 65.7168 49.7993 65.6908 49.4049 65.6439C48.9342 65.5919 48.4539 65.5172 47.9639 65.4199C47.4931 65.3263 47.0286 65.2037 46.5729 65.0529C46.1988 64.9352 45.8425 64.767 45.5139 64.5529L45.5049 64.5609Z" fill="white"></path><path d="M72.9929 58.7231H62.7789C62.7266 60.0856 63.1909 61.4175 64.0789 62.4521C64.5234 62.901 65.0578 63.2509 65.647 63.4787C66.2363 63.7065 66.867 63.8072 67.4979 63.7741C69.1352 63.7704 70.7209 63.2013 71.9869 62.1631V64.3351C70.4958 65.3218 68.7288 65.807 66.9429 65.7201C66.0445 65.7664 65.1469 65.6138 64.3143 65.2733C63.4816 64.9328 62.7344 64.4127 62.1259 63.7501C60.8739 62.1838 60.2503 60.2073 60.3769 58.2061C60.2908 56.1969 60.973 54.2303 62.2849 52.7061C62.8732 52.0249 63.6041 51.4813 64.4258 51.1139C65.2475 50.7465 66.1399 50.5643 67.0399 50.5801C67.8649 50.5324 68.6899 50.6733 69.4523 50.9921C70.2147 51.3109 70.8945 51.7993 71.4399 52.4201C72.5521 53.879 73.1036 55.6888 72.9939 57.5201L72.9929 58.7231ZM70.6199 56.7571C70.6799 55.6343 70.3366 54.527 69.6519 53.6351C69.3228 53.2619 68.9136 52.9679 68.4549 52.7752C67.9962 52.5824 67.4998 52.4959 67.0029 52.5221C66.4829 52.5138 65.9669 52.614 65.4878 52.8161C65.0086 53.0182 64.5768 53.3179 64.2199 53.6961C63.4288 54.5371 62.9325 55.6125 62.8059 56.7601L70.6199 56.7571Z" fill="white"></path><path d="M78.6691 65.3801H76.3521V43.9641H78.6691V65.3801Z" fill="white"></path><path d="M94.842 58.7231H84.629C84.5767 60.0855 85.041 61.4175 85.929 62.4521C86.3742 62.8996 86.9089 63.2479 87.4981 63.4744C88.0873 63.7008 88.7177 63.8002 89.348 63.7661C90.9853 63.7624 92.571 63.1933 93.837 62.1551V64.3341C92.3459 65.3208 90.5789 65.806 88.793 65.7191C87.8946 65.7655 86.997 65.613 86.1643 65.2725C85.3316 64.932 84.5844 64.4118 83.976 63.7491C82.7243 62.1827 82.1007 60.2062 82.227 58.2051C82.141 56.1959 82.8232 54.2294 84.135 52.7051C84.7233 52.0239 85.4542 51.4803 86.2759 51.1129C87.0976 50.7455 87.99 50.5633 88.89 50.5791C89.7134 50.5323 90.5368 50.6733 91.2977 50.9915C92.0586 51.3098 92.7371 51.7969 93.282 52.4161C94.3945 53.8749 94.946 55.6848 94.836 57.5161L94.842 58.7231ZM92.468 56.7591C92.5284 55.6364 92.1854 54.5291 91.501 53.6371C91.1719 53.2639 90.7627 52.9699 90.304 52.7772C89.8453 52.5844 89.3489 52.4979 88.852 52.5241C88.332 52.5158 87.816 52.6159 87.3369 52.818C86.8577 53.0201 86.4259 53.3199 86.069 53.6981C85.2779 54.5391 84.7816 55.6145 84.655 56.7621L92.468 56.7591Z" fill="white"></path><path d="M108.061 64.715C106.859 65.4068 105.49 65.7529 104.104 65.715C103.176 65.7526 102.252 65.5925 101.391 65.2455C100.53 64.8984 99.7521 64.3723 99.1099 63.702C97.8136 62.2806 97.1308 60.4051 97.2099 58.483C97.1101 56.374 97.846 54.3108 99.2579 52.741C99.9639 52.0133 100.816 51.4437 101.759 51.0698C102.701 50.6959 103.712 50.5262 104.725 50.572C105.886 50.5477 107.038 50.7892 108.092 51.278V53.653C107.09 52.9231 105.884 52.5274 104.644 52.522C103.958 52.5027 103.276 52.6352 102.648 52.9101C102.019 53.185 101.459 53.5954 101.007 54.112C100.024 55.2742 99.5164 56.7653 99.5869 58.286C99.5057 59.7446 99.9834 61.1793 100.923 62.298C101.377 62.7883 101.933 63.1738 102.551 63.4275C103.17 63.6812 103.836 63.797 104.504 63.767C105.798 63.7567 107.052 63.3139 108.065 62.509L108.061 64.715Z" fill="white"></path><path d="M118.129 65.243C117.458 65.5709 116.714 65.7249 115.968 65.691C113.435 65.691 112.168 64.2783 112.168 61.453V52.893H109.682V50.909H112.163V47.383L114.48 46.634V50.909H118.13V52.887H114.485V61.043C114.421 61.7707 114.595 62.4995 114.98 63.12C115.187 63.3429 115.442 63.515 115.726 63.6229C116.01 63.7308 116.315 63.7716 116.618 63.742C117.161 63.7561 117.693 63.5882 118.13 63.265L118.129 65.243Z" fill="white"></path><path d="M131.543 57.721V65.378H129.169V45.126H134.737C136.554 45.0109 138.348 45.5743 139.773 46.707C140.381 47.2737 140.857 47.9676 141.166 48.7392C141.475 49.5109 141.61 50.3412 141.561 51.171C141.589 52.0533 141.425 52.9311 141.083 53.7446C140.74 54.5581 140.226 55.2882 139.576 55.885C138.094 57.1675 136.172 57.8259 134.215 57.722L131.543 57.721ZM131.543 47.268V55.568H134.029C135.374 55.6603 136.707 55.2613 137.78 54.445C138.218 54.0462 138.562 53.5545 138.785 53.0058C139.009 52.4572 139.107 51.8655 139.073 51.274C139.073 48.6 137.491 47.2627 134.326 47.262L131.543 47.268Z" fill="white"></path><path d="M154.284 65.38H151.967V63.12H151.911C151.488 63.9283 150.846 64.6009 150.059 65.0608C149.271 65.5207 148.37 65.7492 147.458 65.72C146.224 65.7926 145.011 65.3819 144.075 64.575C143.667 64.185 143.346 63.7124 143.135 63.1886C142.924 62.6649 142.828 62.1021 142.852 61.538C142.852 58.8353 144.442 57.264 147.623 56.824L151.96 56.217C151.96 53.7583 150.967 52.5297 148.98 52.531C147.244 52.5302 145.568 53.1631 144.266 54.311V51.925C145.739 51.0067 147.447 50.5356 149.182 50.569C152.582 50.569 154.282 52.369 154.282 55.969L154.284 65.38ZM151.967 58.065L148.478 58.542C147.618 58.6199 146.786 58.8935 146.048 59.342C145.754 59.5855 145.525 59.8984 145.382 60.2524C145.239 60.6065 145.186 60.9906 145.229 61.37C145.219 61.6962 145.282 62.0206 145.412 62.3197C145.543 62.6188 145.738 62.8853 145.984 63.1C146.547 63.5691 147.265 63.8093 147.997 63.773C148.53 63.7878 149.061 63.6876 149.552 63.4793C150.043 63.2711 150.484 62.9596 150.844 62.566C151.603 61.7325 152.006 60.6349 151.967 59.508V58.065Z" fill="white"></path><path d="M166.049 53.259C165.533 52.916 164.918 52.7516 164.3 52.791C163.802 52.797 163.314 52.9284 162.881 53.1731C162.448 53.4179 162.083 53.768 161.821 54.191C161.098 55.328 160.748 56.6625 160.821 58.008V65.382H158.501V50.909H160.818V53.889H160.874C161.141 52.9664 161.665 52.1391 162.386 51.504C163.016 50.9525 163.825 50.6489 164.662 50.65C165.132 50.6304 165.602 50.6982 166.047 50.85L166.049 53.259Z" fill="white"></path><path d="M175.129 65.243C174.458 65.5709 173.714 65.7249 172.968 65.691C170.435 65.691 169.168 64.2783 169.168 61.453V52.893H166.682V50.909H169.168V47.383L171.485 46.634V50.909H175.13V52.887H171.487V61.043C171.423 61.7707 171.597 62.4995 171.982 63.12C172.189 63.343 172.444 63.5152 172.728 63.6231C173.012 63.731 173.317 63.7717 173.62 63.742C174.163 63.7561 174.695 63.5882 175.132 63.265L175.129 65.243Z" fill="white"></path><path d="M190.084 65.3799H187.767V57.133C187.767 54.0663 186.645 52.533 184.4 52.533C183.854 52.5208 183.313 52.6312 182.816 52.8562C182.318 53.0812 181.878 53.415 181.527 53.833C180.751 54.7535 180.346 55.9299 180.39 57.133V65.383H178.077V50.9119H180.394V53.312H180.45C180.91 52.4602 181.597 51.7528 182.435 51.269C183.273 50.7851 184.23 50.5437 185.197 50.5719C185.88 50.5296 186.563 50.6462 187.193 50.9121C187.822 51.1781 188.382 51.5864 188.828 52.105C189.747 53.3914 190.191 54.9568 190.084 56.534V65.3799Z" fill="white"></path><path d="M205.932 58.7231H195.719C195.667 60.0855 196.131 61.4175 197.019 62.4521C197.464 62.8996 197.999 63.248 198.588 63.4745C199.177 63.7009 199.808 63.8003 200.438 63.7661C202.075 63.7628 203.661 63.1936 204.927 62.1551V64.3341C203.436 65.3211 201.67 65.8063 199.884 65.7191C198.986 65.7654 198.088 65.6128 197.255 65.2723C196.423 64.9318 195.676 64.4117 195.067 63.7491C193.815 62.1829 193.191 60.2063 193.318 58.2051C193.232 56.1959 193.914 54.2293 195.226 52.7051C195.814 52.0239 196.545 51.4803 197.367 51.1129C198.189 50.7455 199.081 50.5633 199.981 50.5791C200.804 50.5323 201.628 50.6733 202.389 50.9915C203.15 51.3098 203.828 51.7969 204.373 52.4161C205.485 53.875 206.037 55.6848 205.927 57.5161L205.932 58.7231ZM203.559 56.7591C203.621 55.6359 203.28 54.5275 202.596 53.6341C202.267 53.2609 201.858 52.9669 201.399 52.7742C200.94 52.5814 200.444 52.4949 199.947 52.5211C199.427 52.5128 198.911 52.613 198.432 52.8151C197.953 53.0172 197.521 53.3169 197.164 53.6951C196.373 54.5361 195.877 55.6115 195.75 56.7591H203.559Z" fill="white"></path><path d="M216.837 53.259C216.321 52.9156 215.707 52.7512 215.088 52.791C214.59 52.7968 214.102 52.9282 213.669 53.1729C213.235 53.4176 212.871 53.7678 212.609 54.191C211.886 55.328 211.536 56.6625 211.609 58.008V65.382H209.292V50.909H211.609V53.889H211.665C211.932 52.9664 212.456 52.1391 213.177 51.504C213.806 50.9529 214.615 50.6494 215.451 50.65C215.921 50.6305 216.39 50.6983 216.835 50.85L216.837 53.259Z" fill="white"></path><path d="M22 53.254V62.0431H20.916C20.4733 62.0431 20.0599 61.9812 19.6758 61.8575C19.2852 61.7338 18.9206 61.5678 18.582 61.3595C18.237 61.1511 17.9147 60.907 17.6152 60.6271C17.3092 60.3471 17.0163 60.0476 16.7363 59.7286C16.4499 59.4096 16.1764 59.0841 15.916 58.7521C15.6491 58.42 15.3822 58.0945 15.1152 57.7755C14.8613 57.476 14.6139 57.2026 14.373 56.9552C14.1257 56.7078 13.8717 56.4962 13.6113 56.3204C13.3509 56.1446 13.0775 56.0079 12.791 55.9103C12.498 55.8126 12.1823 55.7638 11.8438 55.7638C11.4727 55.7638 11.1504 55.8224 10.877 55.9396C10.597 56.0502 10.3659 56.2097 10.1836 56.4181C9.99479 56.6199 9.85482 56.8608 9.76367 57.1407C9.66602 57.4207 9.61719 57.7267 9.61719 58.0587C9.61719 58.6316 9.75065 59.2143 10.0176 59.8067C10.2845 60.3992 10.6849 60.9689 11.2188 61.5157H9.04102C8.82617 61.2293 8.64062 60.9396 8.48438 60.6466C8.32161 60.3536 8.18815 60.0509 8.08398 59.7384C7.97331 59.4259 7.89193 59.0971 7.83984 58.7521C7.78776 58.407 7.76172 58.0392 7.76172 57.6485C7.76172 57.017 7.84635 56.4441 8.01562 55.9298C8.17839 55.4155 8.42253 54.976 8.74805 54.6114C9.06706 54.2468 9.46745 53.9669 9.94922 53.7716C10.431 53.5698 10.9844 53.4689 11.6094 53.4689C12.1758 53.4689 12.6868 53.5405 13.1426 53.6837C13.5918 53.8204 14.0117 54.019 14.4023 54.2794C14.793 54.5333 15.1641 54.8425 15.5156 55.2071C15.8672 55.5717 16.2285 55.9786 16.5996 56.4278C16.9056 56.8054 17.2051 57.183 17.498 57.5606C17.7845 57.9317 18.0677 58.267 18.3477 58.5665C18.6211 58.866 18.8978 59.1101 19.1777 59.2989C19.4512 59.4812 19.7279 59.5724 20.0078 59.5724H20.0566V53.254H22ZM22.2344 46.0864C22.2344 47.5448 21.6387 48.6841 20.4473 49.5044C19.2559 50.3182 17.5339 50.7251 15.2812 50.7251C12.8073 50.7251 10.9355 50.2987 9.66602 49.4458C8.39648 48.5929 7.76172 47.3625 7.76172 45.7544C7.76172 42.675 10.1543 41.1353 14.9395 41.1353C17.3092 41.1353 19.1191 41.5715 20.3691 42.4439C21.6126 43.3097 22.2344 44.5239 22.2344 46.0864ZM9.56836 45.8618C9.56836 47.561 11.4401 48.4106 15.1836 48.4106C18.6862 48.4106 20.4375 47.5773 20.4375 45.9106C20.4375 44.27 18.6569 43.4497 15.0957 43.4497C11.4108 43.4497 9.56836 44.2537 9.56836 45.8618ZM22 30.2274V39.0165H20.916C20.4733 39.0165 20.0599 38.9547 19.6758 38.831C19.2852 38.7073 18.9206 38.5412 18.582 38.3329C18.237 38.1246 17.9147 37.8804 17.6152 37.6005C17.3092 37.3205 17.0163 37.0211 16.7363 36.7021C16.4499 36.383 16.1764 36.0575 15.916 35.7255C15.6491 35.3935 15.3822 35.0679 15.1152 34.7489C14.8613 34.4494 14.6139 34.176 14.373 33.9286C14.1257 33.6812 13.8717 33.4696 13.6113 33.2939C13.3509 33.1181 13.0775 32.9814 12.791 32.8837C12.498 32.786 12.1823 32.7372 11.8438 32.7372C11.4727 32.7372 11.1504 32.7958 10.877 32.913C10.597 33.0237 10.3659 33.1832 10.1836 33.3915C9.99479 33.5933 9.85482 33.8342 9.76367 34.1142C9.66602 34.3941 9.61719 34.7001 9.61719 35.0321C9.61719 35.605 9.75065 36.1877 10.0176 36.7802C10.2845 37.3726 10.6849 37.9423 11.2188 38.4892H9.04102C8.82617 38.2027 8.64063 37.913 8.48438 37.62C8.32161 37.3271 8.18815 37.0243 8.08398 36.7118C7.97331 36.3993 7.89193 36.0705 7.83984 35.7255C7.78776 35.3804 7.76172 35.0126 7.76172 34.622C7.76172 33.9905 7.84635 33.4175 8.01563 32.9032C8.17839 32.3889 8.42253 31.9494 8.74805 31.5849C9.06706 31.2203 9.46745 30.9403 9.94922 30.745C10.431 30.5432 10.9844 30.4423 11.6094 30.4423C12.1758 30.4423 12.6868 30.5139 13.1426 30.6571C13.5918 30.7939 14.0117 30.9924 14.4023 31.2528C14.793 31.5067 15.1641 31.816 15.5156 32.1806C15.8672 32.5452 16.2285 32.9521 16.5996 33.4013C16.9056 33.7789 17.2051 34.1565 17.498 34.5341C17.7845 34.9052 18.0677 35.2405 18.3477 35.5399C18.6211 35.8394 18.8978 36.0836 19.1777 36.2724C19.4512 36.4547 19.7279 36.5458 20.0078 36.5458H20.0566V30.2274H22ZM7.99609 19.4173H17.0391V17.3372H18.9238V19.4173H22V21.6146H18.9238V27.9524H17.0195C16.375 27.3795 15.6784 26.7936 14.9297 26.1946C14.1745 25.5892 13.4063 25.0097 12.625 24.4563C11.8372 23.8965 11.0495 23.3789 10.2617 22.9036C9.47396 22.4284 8.71875 22.028 7.99609 21.7024V19.4173ZM17.0391 21.6146H11.1602C12.4362 22.3242 13.5495 23.0273 14.5 23.7239C15.4505 24.414 16.2969 25.0618 17.0391 25.6673V21.6146Z" fill="white"></path></g></g><defs><clipPath id="clip0_3666_88"><rect width="233" height="80" fill="white"></rect></clipPath></defs></svg> 