<?xml version="1.0" encoding="UTF-8"?> <svg xmlns="http://www.w3.org/2000/svg" width="89" height="40" viewBox="0 0 89 40"><g id="Group_4204" data-name="Group 4204" transform="translate(-7384.875 -11061)"><g id="Rectangle_1025" data-name="Rectangle 1025" transform="translate(7384.875 11061)" fill="none" stroke="#fff" stroke-width="1"><rect width="89" height="40" stroke="none"></rect><rect x="0.5" y="0.5" width="88" height="39" fill="none"></rect></g><rect id="Rectangle_488" data-name="Rectangle 488" width="0.548" height="30.174" transform="translate(7436.772 11066.405)" fill="#fff"></rect><path id="Path_6305" data-name="Path 6305" d="M4.892,2.668l5.16-11.72v-1.62H.432v2.06h6.92L2.312,2.668Z" transform="translate(7448.858 11079.582)" fill="#fff"></path><path id="Path_6306" data-name="Path 6306" d="M2.027,1.016h.622V-1.1L4.614-3.987H3.887L2.334-1.662.782-3.987H.054L2.027-1.1Zm3.24,0H8.544V.461H5.889V-1.265h2.6v-.555h-2.6V-3.432H8.544v-.555H5.266Zm7.838,0h.712l-2.017-5h-.773l-2.01,5h.713l.442-1.11h2.49ZM11.417-3.342,12.474-.65H10.351Zm5.948,4.358H18.1l-1.35-2.04a1.382,1.382,0,0,0,1.3-1.455,1.457,1.457,0,0,0-1.567-1.508h-2.01v5h.622V-.972h1ZM17.4-2.479a.936.936,0,0,1-1,.96H15.091V-3.432H16.4A.93.93,0,0,1,17.4-2.479ZM18.729.311a2.477,2.477,0,0,0,1.92.8c1.35,0,1.845-.743,1.845-1.47,0-1.05-.93-1.3-1.747-1.523-.638-.172-1.215-.322-1.215-.825,0-.473.427-.8,1.028-.8a1.914,1.914,0,0,1,1.447.6l.375-.457a2.352,2.352,0,0,0-1.778-.7c-.983,0-1.718.563-1.718,1.388,0,.982.892,1.207,1.695,1.418.66.18,1.267.345,1.267.945,0,.383-.285.863-1.177.863A2.114,2.114,0,0,1,19.1-.162Z" transform="translate(7441.264 11092.484)" fill="#fff"></path><path id="inc-5000-vector-logo-2022" d="M-83.014,86.42V83.95h1.532V77.734h-1.532V75.1h7.748v2.639H-76.8v6.216h1.532V86.42Zm15.154,0V83.95h1.02V81.4c0-.769-.512-1.107-1.276-1.107a1.588,1.588,0,0,0-1.619,1.445V83.95h1.107v2.47h-5.955V83.95h1.02V80.291h-1.02v-2.47h4.766v1.7l.256-.256A3.929,3.929,0,0,1-66.328,77.9c1.87,0,3.4.769,3.4,2.808v3.234H-61.9V86.42ZM-52.025,81.4l-3.321.338c0-.938-.256-1.87-1.363-1.87-1.445,0-1.532,1.194-1.532,2.3h0c0,1.194.087,2.383,1.532,2.383a1.319,1.319,0,0,0,1.445-1.194v-.169h3.321v.256c-.512,2.726-2.977,3.152-4.684,3.152-2.726,0-5.448-1.363-5.448-4.428h0c0-3.065,2.726-4.428,5.448-4.428C-56.709,77.821-52.363,77.565-52.025,81.4Zm2.552,3.659a1.343,1.343,0,0,1-1.363,1.363A1.343,1.343,0,0,1-52.2,85.057a1.343,1.343,0,0,1,1.363-1.363h0a1.346,1.346,0,0,1,1.363,1.363ZM-72.8,87.527c-3.321,0-5.191,2.214-5.191,6.554s1.87,6.554,5.191,6.554,5.191-2.214,5.191-6.554S-69.562,87.527-72.8,87.527Zm0,10.47c-1.194,0-1.445-1.194-1.445-3.915s.256-3.915,1.445-3.915,1.445,1.194,1.445,3.915S-71.606,98-72.8,98Zm10.982-10.47c-3.321,0-5.191,2.214-5.191,6.554s1.87,6.554,5.191,6.554,5.191-2.214,5.191-6.554S-58.58,87.527-61.813,87.527Zm0,10.47c-1.194,0-1.445-1.194-1.445-3.915s.256-3.915,1.445-3.915,1.445,1.194,1.445,3.915S-60.624,98-61.813,98Zm10.982-10.47c-3.321,0-5.191,2.214-5.191,6.554s1.87,6.554,5.191,6.554,5.191-2.214,5.191-6.554S-47.6,87.527-50.831,87.527Zm0,10.47c-1.194,0-1.445-1.194-1.445-3.915s.256-3.915,1.445-3.915,1.445,1.194,1.445,3.915S-49.642,98-50.831,98Zm-28.688-5.191A4.276,4.276,0,0,0-82.5,91.781a3.424,3.424,0,0,0-2.383.851l.256-2.045h5.36V87.609H-87.1l-.851,5.96,2.3,1.194a3.128,3.128,0,0,1,2.045-.851,1.784,1.784,0,0,1,1.107.425,2.246,2.246,0,0,1,.594,1.619,1.622,1.622,0,0,1-.087.682,1.361,1.361,0,0,1-1.532,1.194c-1.445,0-1.363-1.788-1.02-2.47h0L-88.2,97.32c.256,2.3,2.639,3.4,4.6,3.4a5.267,5.267,0,0,0,3.577-1.276,4.489,4.489,0,0,0,.938-1.194,4.423,4.423,0,0,0,.594-2.3A3.884,3.884,0,0,0-79.519,92.806Z" transform="translate(7478.415 10993.088)" fill="#fff"></path></g></svg> 